<svg width="80" height="80" viewBox="0 0 80 80" fill="none" xmlns="http://www.w3.org/2000/svg">
<path d="M28.6218 16.1479C26.5775 17.1266 25.7191 19.5618 26.6978 21.6062L30.3138 29.1587L37.7528 25.5972L34.1369 18.0446C33.1013 16.0275 30.6661 15.1691 28.6218 16.1479ZM31.0686 21.2586C30.2736 21.6392 29.3499 21.3137 28.9693 20.5187C28.5887 19.7236 28.9143 18.7999 29.7093 18.4193C30.5043 18.0387 31.428 18.3643 31.8086 19.1593C32.1621 19.8975 31.8637 20.878 31.0686 21.2586Z" fill="#FFB631"/>
<path d="M60.8465 41.9031C54.9942 36.6777 52.694 27.9367 46.0074 23.7389C41.828 21.1329 36.3112 20.9821 31.8819 23.1027C27.4525 25.2233 24.1107 29.6154 23.52 34.5052C22.57 42.2893 27.9367 49.5621 28.3647 57.4543C28.6361 62.9784 26.2875 68.5702 22.1428 72.16L23.6925 75.3969L50.7228 62.4556L77.7531 49.5144L76.2034 46.2776C70.808 47.2552 64.9794 45.5784 60.8465 41.9031Z" fill="#FFB631"/>
<path d="M25.8163 46.7383C25.977 47.2197 26.1649 47.758 26.3256 48.2395C30.3942 45.8029 35.2531 43.2672 40.4207 40.7932C45.5882 38.3191 50.6374 36.181 55.0595 34.4826C54.7852 34.0555 54.4837 33.5716 54.2094 33.1445C49.7873 34.8429 44.8517 36.9267 39.741 39.3735C34.6302 41.8204 29.8553 44.3857 25.8163 46.7383Z" fill="#FFC761"/>
<path d="M56.1845 36.2477C55.9102 35.8206 55.6087 35.3367 55.3073 34.8528C50.858 36.4944 45.7792 38.7165 40.6117 41.1906C35.4441 43.6646 30.5285 46.2275 26.4598 48.664C26.6477 49.2023 26.8084 49.6838 26.9963 50.222C31.1218 47.7583 36.0942 45.1683 41.3185 42.667C46.5429 40.1658 51.7056 37.9732 56.1845 36.2477Z" fill="#FFC761"/>
<path d="M25.1465 44.7557C25.3072 45.2372 25.4951 45.7754 25.6558 46.2569C29.6949 43.9043 34.4698 41.339 39.5237 38.9194C44.5777 36.4997 49.5429 34.3319 53.9354 32.7175C53.6339 32.2337 53.3596 31.8066 53.0854 31.3795C48.72 33.0506 43.8684 35.164 38.8712 37.5565C33.874 39.949 29.1288 42.4303 25.1465 44.7557Z" fill="#FFC761"/>
<path d="M57.1447 37.6722C52.5818 39.3681 47.3623 41.5878 41.9676 44.1706C36.6297 46.7263 31.6277 49.4003 27.3887 51.9184C27.5198 52.4839 27.6805 52.9653 27.8116 53.5308C32.0506 51.0127 37.1662 48.2843 42.6745 45.6471C48.126 43.0371 53.5159 40.7358 58.1355 39.0127C57.7772 38.556 57.503 38.1289 57.1447 37.6722Z" fill="#FFC761"/>
<path d="M76.2312 46.3352C70.8086 47.2561 64.9504 45.6632 60.8743 41.9607C55.022 36.7353 52.7218 27.9944 46.0352 23.7966C44.3358 22.7255 42.4044 22.0447 40.409 21.8134C45.6487 26.6341 50.3701 32.1218 54.2669 38.074C55.7495 40.2959 57.1433 42.7698 57.2382 45.4466C57.3108 47.7852 56.2301 50.0476 54.8184 51.9102C53.4066 53.7728 51.523 55.233 49.7234 56.7228C52.2154 57.554 55.2433 58.338 58.3032 58.8973L77.7241 49.5992L76.1744 46.3624L76.2312 46.3352Z" fill="#6E4E15" fill-opacity="0.32"/>
<path d="M50.9973 62.8824C65.9257 55.7352 77.2364 48.2886 76.2604 46.2501C75.2844 44.2115 62.3913 48.3529 47.4629 55.5002C32.5345 62.6474 21.2238 70.094 22.1998 72.1325C23.1758 74.1711 36.0689 70.0296 50.9973 62.8824Z" fill="#FFC761"/>
<path d="M56.2331 51.5115C53.453 52.7029 50.5297 54.0327 47.4632 55.5008C42.6931 57.7845 38.3454 60.0755 34.6198 62.2082C36.4642 61.395 38.2814 60.525 40.0713 59.5982L45.4956 56.9314C47.3128 56.0614 49.1028 55.1346 50.9199 54.2646C52.6803 53.4218 54.4135 52.5222 56.2331 51.5115Z" fill="#6E4E15" fill-opacity="0.32"/>
<path d="M76.203 46.2775L22.1992 72.1328L23.7489 75.3696L77.7527 49.5144L76.203 46.2775Z" fill="#FFC761"/>
<path d="M52.5471 66.1197C67.4755 58.9725 78.7862 51.5259 77.8102 49.4874C76.8342 47.4488 63.9411 51.5902 49.0127 58.7375C34.0843 65.8847 22.7736 73.3313 23.7496 75.3698C24.7256 77.4084 37.6187 73.2669 52.5471 66.1197Z" fill="#BF8825"/>
<path d="M28.8705 49.3248C29.2215 50.2038 29.7949 51.2555 30.7234 51.2996C31.4544 51.3684 32.1111 50.8446 32.4046 50.1456C32.6982 49.4467 32.7103 48.7429 32.6951 47.9823C32.5059 44.2337 31.1338 40.493 31.9843 36.8749C32.2899 35.4722 32.9315 34.1878 33.2371 32.785C33.698 30.5401 32.8497 27.4561 29.9729 27.7165C27.4615 28.0114 27.1493 31.4417 26.918 33.4371C26.2338 38.8603 26.9003 44.3348 28.8705 49.3248Z" fill="#3B3B3B" fill-opacity="0.2"/>
<path d="M33.7022 53.2935C34.5939 53.8438 34.8809 55.1723 34.2737 56.0912C33.7234 56.9829 32.395 57.2699 31.5033 56.7196C29.2456 55.3573 31.5013 51.9041 33.7022 53.2935Z" fill="#3B3B3B" fill-opacity="0.2"/>
<path d="M44.5536 60.9425C44.6079 61.0561 44.6895 61.2265 44.7439 61.34C45.9401 63.8386 48.8792 64.8746 51.3778 63.6784C53.8764 62.4821 54.9124 59.543 53.7161 57.0444C53.6617 56.9308 53.5802 56.7605 53.5258 56.6469C52.0222 57.297 50.5457 58.0039 49.0125 58.7379C47.4793 59.472 46.0028 60.1789 44.5536 60.9425Z" fill="#6E4E15"/>
<path d="M50.7187 20.019C50.1533 20.1501 49.6422 20.3948 49.0496 20.4692C48.4569 20.5435 47.7803 20.5882 47.1333 20.549C46.4863 20.5097 45.8689 20.3865 45.1971 20.1497C45.797 19.6531 46.2313 18.9565 46.4705 18.144C46.7713 17.0227 46.5387 15.8078 45.6222 15.06C44.7897 14.3417 43.4981 14.1225 42.5575 14.7822C41.5601 15.4691 41.2001 16.7583 41.3216 17.8868C41.4479 18.7338 41.8013 19.472 42.3251 20.1287C41.0782 20.586 39.6682 20.7027 38.6805 20.8266C37.8063 20.8961 36.8778 20.852 35.9788 20.724C36.2356 20.5312 36.5491 20.3113 36.8058 20.1186C38.9462 18.4656 40.7579 16.272 41.5075 13.6096C41.8675 12.3204 42.0052 10.8585 41.2367 9.69072C40.5226 8.63655 39.2334 8.27654 38.0209 8.36841C35.312 8.68809 33.6587 11.504 32.8299 13.8552C32.3835 15.2556 32.0779 16.6584 31.6315 18.0587C31.3947 18.7305 31.1851 19.4591 30.8371 20.0445C30.7211 20.2396 30.6052 20.4348 30.5164 20.6867C30.2892 20.7954 30.0621 20.9042 29.8917 20.9858C29.7238 20.9266 29.5262 20.9513 29.3015 20.9193C28.7113 20.8529 28.2346 20.7321 27.674 20.5817C26.6095 20.2537 25.5474 19.7849 24.5126 19.3729C22.3885 18.4354 20.1779 17.6091 17.8666 17.7384C16.4566 17.8551 15.1233 18.4236 14.7041 19.8808C14.3417 21.3107 14.967 22.6168 16.049 23.5646C18.0203 25.2035 20.9938 25.874 23.4707 25.9446C24.9623 25.9983 26.4859 25.8273 27.9007 25.4291C28.0711 25.3476 28.2686 25.3228 28.439 25.2412C27.5111 26.8023 26.0794 28.1858 24.5437 29.0606C24.4302 29.115 24.3166 29.1694 24.203 29.2238C24.0991 28.7151 23.9384 28.2336 23.6641 27.8065C23.034 26.7819 21.8384 25.8885 20.6211 26.2619C19.3198 26.6057 18.9278 28.1196 18.9629 29.3593C18.9956 30.7397 19.932 31.9666 21.3372 32.1315C21.4779 32.1339 21.6187 32.1363 21.7595 32.1387C21.4979 32.613 21.1523 33.0576 20.8364 33.4183C19.5406 35.0857 17.7906 36.9706 15.7239 37.6111C15.5535 37.6926 15.5215 37.9174 15.6327 38.0037C17.7375 40.0673 20.6625 36.9917 21.9287 35.4082C22.8494 34.2694 23.7748 32.8491 24.1372 31.4191C24.4212 31.2832 24.6483 31.1744 24.9051 30.9817C27.2381 29.5855 28.7387 27.471 29.234 24.8606C30.113 24.5096 31.0239 23.9338 31.3175 23.2348C31.8854 22.963 32.3693 22.6615 32.8236 22.444C33.4482 22.1449 34.1025 21.7619 34.6999 21.4061C35.3717 21.6428 36.1571 21.8253 36.3818 21.8573C37.6166 22.1037 38.9131 22.0414 40.1552 21.8656C41.2565 21.6873 42.4713 21.4547 43.5775 20.9949C44.7459 21.8316 46.203 22.2508 47.6674 22.2477C48.991 22.2422 50.6922 21.5674 51.0546 20.1374C51.0818 20.1942 50.9459 19.9103 50.7187 20.019ZM22.4426 30.0666C22.1883 30.1185 21.9908 30.1433 21.7092 30.1385C21.203 30.1016 21.067 29.8177 20.9335 29.393C20.8816 29.1387 20.7281 28.2349 20.9848 28.0422C21.4391 27.8247 22.0173 28.5949 22.1532 28.8789C22.4003 29.2492 22.4771 29.7011 22.4426 30.0666ZM27.9937 23.2905C27.0035 23.5552 26.043 23.7358 24.9713 23.8301C22.8574 23.9347 20.6397 23.5306 18.7971 22.5979C18.1549 22.2772 16.7866 21.6061 16.9714 20.6799C17.1242 19.9785 18.8381 20.205 19.3444 20.2419C21.199 20.4708 22.9305 21.3171 24.6075 22.0498C25.5856 22.489 26.6205 22.9009 27.6578 23.1722C27.7985 23.1746 27.8825 23.2042 27.9937 23.2905C27.9665 23.2338 27.9665 23.2338 27.9937 23.2905ZM33.7381 18.3764C34.3941 16.2475 34.7438 13.9162 36.1555 12.0536C36.7602 11.2755 37.6168 10.5862 38.6614 10.4351C39.9034 10.2592 40.0225 11.5285 39.808 12.5386C39.236 14.6971 37.5995 16.5277 35.8591 17.8496C35.0889 18.4277 34.2915 18.9491 33.4397 19.3569C33.5877 18.9371 33.6493 18.6283 33.7381 18.3764ZM43.126 16.1155C43.5011 15.5868 44.1754 15.6829 44.6472 16.0852C45.119 16.4875 45.1662 17.0234 45.0725 17.5568C44.9469 18.315 44.4582 18.898 43.8879 19.3106C43.8607 19.2538 43.7768 19.2243 43.7496 19.1675C42.9443 18.506 42.4053 17.0887 43.126 16.1155Z" fill="#CC2E50"/>
<path d="M38.3338 24.6216C36.7841 21.3848 33.3188 19.8329 30.5363 21.1651C27.7537 22.4973 26.7897 26.1698 28.3394 29.4066C28.3937 29.5202 28.4209 29.577 28.4753 29.6905C31.6553 28.168 35.2329 26.4552 38.4697 24.9055C38.4153 24.792 38.3881 24.7352 38.3338 24.6216Z" fill="#BD711B"/>
<path d="M29.4588 24.8921C29.4165 24.0748 29.5813 22.6696 29.9685 21.4372C27.6059 22.9173 26.8146 26.3675 28.2827 29.434C28.3371 29.5475 28.3643 29.6043 28.4187 29.7179C29.0433 29.4188 29.7248 29.0926 30.4062 28.7663C30.0056 27.4922 29.605 26.2182 29.4588 24.8921Z" fill="#CC5B2D"/>
<path d="M32.8625 21.7967C32.5538 21.7351 32.2995 21.787 32.0428 21.9798C31.786 22.1725 31.806 22.6516 32.0851 22.7971C32.1691 22.8267 32.2802 22.9131 32.3642 22.9427C32.4482 22.9723 32.6161 23.0315 32.4482 22.9723C32.6433 23.0883 32.8112 23.1475 33.036 23.1795C33.4854 23.2435 33.7766 22.6853 33.6135 22.3446C33.5343 22.0335 33.228 21.8311 32.8625 21.7967Z" fill="#BD711B"/>
<path d="M30.3288 21.7533C30.4103 21.9237 30.5191 22.1508 30.5439 22.3484C30.994 24.0175 30.2317 25.7786 28.6416 26.5398C28.4713 26.6214 28.3577 26.6757 28.2441 26.7301C26.5454 27.2642 24.6436 26.4995 23.8551 24.8527C22.9851 23.0355 23.7819 20.909 25.5423 20.0662C27.2755 19.1666 29.4588 19.9361 30.3288 21.7533Z" fill="#EF4351"/>
<path opacity="0.4" d="M30.3838 21.8669C30.7348 22.7459 30.7475 23.6472 30.5083 24.4598C30.2124 25.2995 29.5509 26.1048 28.6423 26.5398C26.8251 27.4098 24.6986 26.6131 23.8558 24.8527C23.4208 23.9441 23.4105 22.902 23.7065 22.0623C23.8224 21.8671 23.8545 21.6424 23.9704 21.4473C23.9904 21.9263 24.0671 22.3782 24.2846 22.8325C25.0459 24.4225 26.9773 25.1033 28.5673 24.342C29.5895 23.8527 30.2533 22.9066 30.3838 21.8669Z" fill="#C51F30"/>
<path opacity="0.5" d="M30.5442 22.3493C30.9943 24.0185 30.232 25.7795 28.642 26.5408C28.4716 26.6223 28.3581 26.6767 28.2445 26.7311C27.7944 25.0619 28.5567 23.3009 30.1467 22.5396C30.2331 22.4285 30.4035 22.3469 30.5442 22.3493Z" fill="#C01823"/>
<path opacity="0.5" d="M28.7601 21.2481C28.6393 21.7247 28.0146 22.0238 27.1725 21.8686C26.4143 21.7429 25.8313 21.2542 25.9249 20.7208C26.0457 20.2441 26.6704 19.9451 27.5125 20.1003C28.2979 20.2827 28.8809 20.7714 28.7601 21.2481Z" fill="white"/>
<path d="M31.9266 22.1753C31.0566 20.3581 31.8534 18.2316 33.6138 17.3888C35.4309 16.5188 37.5575 17.3155 38.4003 19.0759C39.2703 20.8931 38.4735 23.0196 36.7131 23.8624C34.9528 24.7052 32.7694 23.9357 31.9266 22.1753Z" fill="#EF4351"/>
<path opacity="0.4" d="M38.4816 19.2469C38.8326 20.1259 38.8453 21.0273 38.6061 21.8398C38.3101 22.6795 37.6487 23.4849 36.7401 23.9199C36.5129 24.0286 36.229 24.1646 35.9747 24.2165C34.3351 24.5827 32.6309 23.7931 31.8968 22.2599C31.8696 22.2031 31.8424 22.1464 31.8152 22.0896C31.4642 21.2106 31.4515 20.3092 31.7475 19.4695C31.8635 19.2744 31.8955 19.0496 32.0115 18.8545C32.0314 19.3336 32.1081 19.7854 32.3256 20.2397C33.0869 21.8297 35.0183 22.5105 36.6083 21.7493C37.7168 21.1487 38.324 20.2298 38.4816 19.2469Z" fill="#C51F30"/>
<path opacity="0.5" d="M35.8962 23.9048C35.9234 23.9616 35.9506 24.0184 35.9778 24.0752C34.3382 24.4414 32.634 23.6518 31.8999 22.1186C31.8727 22.0618 31.8455 22.005 31.8184 21.9482C33.4579 21.5821 35.1622 22.3716 35.8962 23.9048Z" fill="#C01823"/>
<path opacity="0.5" d="M36.9163 18.5997C36.7955 19.0763 36.1709 19.3754 35.3287 19.2201C34.5706 19.0945 33.9876 18.6058 34.0812 18.0723C34.202 17.5957 34.8266 17.2966 35.6688 17.4519C36.427 17.5775 36.9532 18.0934 36.9163 18.5997Z" fill="white"/>
<path d="M35.6757 24.6611C34.9599 22.813 32.8814 21.8951 31.0333 22.6109C29.1852 23.3268 28.2673 25.4052 28.9832 27.2533C29.699 29.1014 31.7775 30.0193 33.6256 29.3035C35.4737 28.5876 36.3915 26.5092 35.6757 24.6611Z" fill="#EF4351"/>
<path opacity="0.4" d="M35.6592 24.5759C36.0102 25.4549 36.0229 26.3562 35.7837 27.1688C35.4877 28.0085 34.8263 28.8138 33.9177 29.2488C32.1005 30.1188 29.974 29.3221 29.1312 27.5617C28.6962 26.6531 28.6859 25.611 28.9819 24.7713C29.0978 24.5761 29.1298 24.3514 29.2458 24.1563C29.2658 24.6353 29.3425 25.0872 29.56 25.5415C30.3213 27.1315 32.2527 27.8123 33.8427 27.051C34.8377 26.5049 35.5015 25.5588 35.6592 24.5759Z" fill="#C51F30"/>
<path opacity="0.5" d="M34.0365 23.958C33.9156 24.4347 33.291 24.7338 32.4488 24.5785C31.6907 24.4529 31.1077 23.9642 31.2013 23.4308C31.3221 22.9541 31.9468 22.655 32.7889 22.8103C33.5743 22.9927 34.1573 23.4814 34.0365 23.958Z" fill="white"/>
</svg>
