<svg width="75" height="70" viewBox="0 0 75 70" fill="none" xmlns="http://www.w3.org/2000/svg">
<path d="M69.1833 11.9765C67.6655 11.7368 66.2277 11.657 65.2691 11.4173C60.7158 10.299 56.1626 8.78121 51.6094 7.58299C42.1833 5.10667 32.6774 2.94988 23.1715 0.553435C21.2544 0.0741462 19.1775 -0.405142 17.4201 0.553435C15.5029 1.59189 14.784 3.90845 14.2248 5.98536C10.7899 18.9262 8.47337 32.3462 4.47929 45.1273C3.92012 46.9646 3.68047 49.1213 4.71893 50.719C5.67751 52.1568 7.35504 52.7959 9.03255 53.1953C24.2899 56.6302 39.068 61.8225 54.3253 65.3373C55.9229 65.7367 57.7602 66.0562 59.1981 65.2574C60.7957 64.3787 61.4348 62.4615 61.9141 60.7042C66.1478 46.2456 70.7809 31.867 74.2957 17.2487C74.5353 16.37 74.6951 15.3315 74.3756 14.4528C73.7365 12.9351 71.42 12.3759 69.1833 11.9765Z" fill="#60A099"/>
<path d="M69.1833 11.9765C67.6655 11.7368 66.2277 11.657 65.2691 11.4173C60.7158 10.299 56.1626 8.78121 51.6094 7.58299C42.1833 5.10667 32.6774 2.94988 23.1715 0.553435C21.2544 0.0741462 19.1775 -0.405142 17.4201 0.553435C15.5029 1.59189 14.784 3.90845 14.2248 5.98536C10.7899 18.9262 8.47337 32.3462 4.47929 45.1273C3.92012 46.9646 3.68047 49.1213 4.71893 50.719C5.67751 52.1568 7.35504 52.7959 9.03255 53.1953C24.2899 56.6302 39.068 61.8225 54.3253 65.3373C55.9229 65.7367 57.7602 66.0562 59.1981 65.2574C60.7957 64.3787 61.4348 62.4615 61.9141 60.7042C66.1478 46.2456 70.7809 31.867 74.2957 17.2487C74.5353 16.37 74.6951 15.3315 74.3756 14.4528C73.7365 12.9351 71.42 12.3759 69.1833 11.9765Z" fill="#60A099"/>
<mask id="mask0_663_1506" style="mask-type:alpha" maskUnits="userSpaceOnUse" x="4" y="0" width="71" height="66">
<path d="M69.1833 11.9765C67.6655 11.7368 66.2277 11.657 65.2691 11.4173C60.7158 10.299 56.1626 8.78121 51.6094 7.58299C42.1833 5.10667 32.6774 2.94988 23.1715 0.553435C21.2544 0.0741462 19.1775 -0.405142 17.4201 0.553435C15.5029 1.59189 14.784 3.90845 14.2248 5.98536C10.7899 18.9262 8.47337 32.3462 4.47929 45.1273C3.92012 46.9646 3.68047 49.1213 4.71893 50.719C5.67751 52.1568 7.35504 52.7959 9.03255 53.1953C24.2899 56.6302 39.068 61.8225 54.3253 65.3373C55.9229 65.7367 57.7602 66.0562 59.1981 65.2574C60.7957 64.3787 61.4348 62.4615 61.9141 60.7042C66.1478 46.2456 70.7809 31.867 74.2957 17.2487C74.5353 16.37 74.6951 15.3315 74.3756 14.4528C73.7365 12.9351 71.42 12.3759 69.1833 11.9765Z" fill="#60A099"/>
<path d="M69.1833 11.9765C67.6655 11.7368 66.2277 11.657 65.2691 11.4173C60.7158 10.299 56.1626 8.78121 51.6094 7.58299C42.1833 5.10667 32.6774 2.94988 23.1715 0.553435C21.2544 0.0741462 19.1775 -0.405142 17.4201 0.553435C15.5029 1.59189 14.784 3.90845 14.2248 5.98536C10.7899 18.9262 8.47337 32.3462 4.47929 45.1273C3.92012 46.9646 3.68047 49.1213 4.71893 50.719C5.67751 52.1568 7.35504 52.7959 9.03255 53.1953C24.2899 56.6302 39.068 61.8225 54.3253 65.3373C55.9229 65.7367 57.7602 66.0562 59.1981 65.2574C60.7957 64.3787 61.4348 62.4615 61.9141 60.7042C66.1478 46.2456 70.7809 31.867 74.2957 17.2487C74.5353 16.37 74.6951 15.3315 74.3756 14.4528C73.7365 12.9351 71.42 12.3759 69.1833 11.9765Z" fill="#60A099"/>
</mask>
<g mask="url(#mask0_663_1506)">
<path d="M27.0838 -5.27715C27.4832 -5.75644 27.643 -6.23575 27.8826 -6.79492C28.2022 -5.91623 28.6815 -5.03752 29.7199 -5.03752C30.4389 -5.03752 31.0779 -5.27717 31.7969 -5.5967C31.5572 -4.718 31.1578 -3.51977 31.3974 -2.56119C31.5572 -1.84226 32.2761 -1.20322 32.9951 -1.12333C32.2761 -0.963572 31.5572 -0.723932 30.9182 -0.404406C30.2791 -0.00499868 29.7199 0.554176 29.5602 1.27311C29.4004 1.99204 29.7998 2.87075 30.5187 3.1104C29.1608 2.87075 27.8028 2.87075 26.4448 3.03051C25.8057 3.11039 25.1667 3.27015 24.927 3.82933C24.7673 4.22873 24.7673 4.62814 25.0069 5.02755C25.2466 5.42695 25.4862 5.74647 25.7259 5.98611C23.1697 5.10741 20.5335 4.46837 17.8975 4.14885C19.2554 1.51276 20.2939 -1.28308 21.1726 -4.07893C21.2525 -2.56119 22.8501 -2.64108 23.6489 -3.51978C24.1282 -4.07895 24.3679 -4.71799 24.6075 -5.35704C24.7673 -4.87775 25.3264 -4.55823 25.8856 -4.63811C26.285 -4.55823 26.7643 -4.87775 27.0838 -5.27715Z" fill="#0F7A70"/>
<path d="M21.5722 -0.883678C21.4124 0.394425 21.013 1.59265 20.5337 2.71099C21.4923 2.2317 22.371 1.67253 23.2497 1.11336C23.2497 1.03348 23.2497 1.03347 23.2497 0.953586C23.729 -0.404399 24.1284 -1.68251 24.4479 -3.12037C24.5278 -3.36002 24.9272 -3.20024 24.8473 -2.9606C24.5278 -1.6825 24.2083 -0.484271 23.729 0.713951C24.9272 -0.0848637 26.1254 -0.883683 27.2437 -1.76238C27.3236 -2.64107 27.4035 -3.51979 27.3236 -4.39848C27.3236 -4.63813 27.723 -4.71799 27.723 -4.47834C27.8029 -3.67953 27.8029 -2.88071 27.723 -2.0819C28.6017 -2.72095 29.4006 -3.43989 30.1994 -4.23871C30.439 -4.39847 30.6787 -4.07895 30.439 -3.91919C29.6402 -3.20025 28.7615 -2.48131 27.9627 -1.76238C28.9213 -1.6825 29.9597 -1.60263 30.9183 -1.52274C31.1579 -1.52274 31.1579 -1.04346 30.8384 -1.12334C29.7201 -1.20322 28.6017 -1.28309 27.4035 -1.36297C26.3651 -0.564157 25.3266 0.154766 24.2083 0.873699C25.5662 1.03346 26.8443 1.43288 28.0426 1.91217C28.2822 1.99205 28.1224 2.39146 27.8828 2.31158C26.5248 1.83229 25.0071 1.35299 23.5692 1.27311C22.5307 1.91216 21.4923 2.55122 20.3739 3.11039C21.5722 3.5098 22.7704 4.06897 23.9686 4.62814C24.2082 4.7879 24.0485 5.18731 23.8089 5.02754C22.5308 4.38849 21.1728 3.82932 19.8148 3.35003C18.8562 3.82932 17.8177 4.3086 16.7793 4.78789C16.5396 4.86777 16.3799 4.46836 16.6195 4.38848C17.658 3.98907 18.6165 3.50979 19.5751 2.95062C20.2142 1.67252 20.6136 0.394415 20.8532 -1.04345C21.1728 -1.20321 21.5722 -1.2032 21.5722 -0.883678Z" fill="#0C5149"/>
<path d="M48.0936 4.46794C48.493 3.98865 48.6528 3.50937 48.8924 2.9502C49.2119 3.82889 49.6912 4.7076 50.7297 4.7076C51.4486 4.7076 52.0877 4.46794 52.8066 4.14842C52.5669 5.02711 52.1675 6.22532 52.4072 7.1839C52.5669 7.90284 53.2859 8.5419 54.0048 8.62178C53.2859 8.78155 52.5669 9.02119 51.9279 9.34071C51.2888 9.74012 50.7297 10.2993 50.5699 11.0182C50.4102 11.7372 50.8096 12.6158 51.5285 12.8555C50.1705 12.6158 48.8125 12.6158 47.4545 12.7756C46.8155 12.8555 46.1764 13.0152 45.9368 13.5744C45.777 13.9738 45.777 14.3732 46.0167 14.7726C46.1764 15.172 46.496 15.4916 46.7356 15.7312C44.1794 14.8525 41.5433 14.2135 38.9072 13.894C40.2652 11.2579 41.3037 8.46201 42.1824 5.66616C42.2623 7.18391 43.8599 7.10404 44.6587 6.22534C45.138 5.66617 45.3776 5.0271 45.6173 4.38805C45.777 4.86734 46.3362 5.18689 46.8954 5.107C47.2948 5.18689 47.7741 4.86735 48.0936 4.46794Z" fill="#0F7A70"/>
<path d="M42.5019 8.86143C42.3421 10.1395 41.9427 11.3378 41.4634 12.4561C42.422 11.9768 43.3007 11.4176 44.1794 10.8585C44.1794 10.7786 44.1794 10.7786 44.1794 10.6987C44.6587 9.34073 45.0581 8.06263 45.3776 6.62476C45.4575 6.38511 45.8569 6.54486 45.777 6.78451C45.4575 8.06261 45.1379 9.26084 44.6587 10.4591C45.8569 9.66024 47.0551 8.86143 48.1735 7.98273C48.2533 7.10403 48.3332 6.22535 48.2533 5.34665C48.2533 5.10701 48.6527 5.02712 48.6527 5.26676C48.7326 6.06558 48.7326 6.86439 48.6527 7.66321C49.5314 7.02416 50.3302 6.30524 51.1291 5.50642C51.3687 5.34666 51.6084 5.66618 51.3687 5.82594C50.5699 6.54488 49.6912 7.2638 48.8924 7.98273C49.851 8.06261 50.8894 8.14251 51.848 8.22239C52.0876 8.22239 52.0876 8.70168 51.7681 8.6218C50.6498 8.54191 49.5314 8.46202 48.3332 8.38214C47.2947 9.18095 46.2563 9.8999 45.1379 10.6188C46.4959 10.7786 47.774 11.178 48.9723 11.6573C49.2119 11.7372 49.0521 12.1366 48.8125 12.0567C47.4545 11.5774 45.9368 11.0981 44.4989 11.0182C43.4604 11.6573 42.422 12.2963 41.3036 12.8555C42.5019 13.2549 43.7001 13.8141 44.8983 14.3732C45.138 14.533 44.9782 14.9324 44.7385 14.7727C43.4604 14.1336 42.1024 13.5745 40.7445 13.0952C39.7859 13.5745 38.7474 14.0537 37.709 14.533C37.4693 14.6129 37.3096 14.2135 37.5492 14.1336C38.5877 13.7342 39.5463 13.2549 40.5048 12.6958C41.1439 11.4177 41.5433 10.1395 41.7829 8.70168C42.1823 8.54192 42.5817 8.5419 42.5019 8.86143Z" fill="#0C5149"/>
<path d="M24.9276 12.7756C25.0075 12.7756 25.0075 12.7756 24.9276 12.7756C25.327 12.2963 25.4867 11.817 25.7264 11.2578C26.0459 12.1365 26.5252 13.0152 27.5637 13.0152C28.2826 13.0152 28.9216 12.7756 29.6406 12.456C29.4009 13.3347 29.0015 14.533 29.2412 15.4915C29.4009 16.2105 30.1199 16.8495 30.8388 16.9294C30.1199 17.0892 29.4009 17.3288 28.7619 17.6483C28.1228 18.0477 27.5637 18.6069 27.4039 19.3258C27.2441 20.0448 27.6435 20.9235 28.3625 21.1631C27.0045 20.9235 25.6465 20.9235 24.2885 21.0832C23.6495 21.1631 23.0104 21.3229 22.7708 21.8821C22.611 22.2815 22.611 22.6809 22.8507 23.0803C23.0104 23.4797 23.3299 23.7992 23.5696 24.0388C21.0134 23.1601 18.3773 22.5211 15.7412 22.2016C17.0992 19.5655 18.1377 16.7696 19.0164 13.9738C19.0962 15.4915 20.6938 15.4117 21.4927 14.533C21.9719 13.9738 22.2116 13.3347 22.4512 12.6957C22.611 13.175 23.1702 13.4945 23.7294 13.4146C24.2086 13.4945 24.6081 13.175 24.9276 12.7756Z" fill="#0F7A70"/>
<path d="M19.4159 17.169C19.2562 18.4472 18.8567 19.6454 18.3775 20.7637C19.336 20.2844 20.2147 19.7253 21.0934 19.1661C21.0934 19.0862 21.0934 19.0862 21.0934 19.0063C21.5727 17.6484 21.9721 16.3702 22.2916 14.9324C22.3715 14.6927 22.7709 14.8525 22.691 15.0921C22.3715 16.3703 22.052 17.5685 21.5727 18.7667C22.7709 17.9679 23.9692 17.1691 25.0875 16.2904C25.1674 15.4117 25.2473 14.533 25.1674 13.6543C25.1674 13.4146 25.5668 13.3347 25.5668 13.5744C25.6467 14.3732 25.6467 15.172 25.5668 15.9708C26.4455 15.3318 27.2443 14.6129 28.0431 13.814C28.2828 13.6543 28.5224 13.9738 28.2828 14.1336C27.4839 14.8525 26.6053 15.5714 25.8064 16.2904C26.765 16.3703 27.8035 16.4501 28.762 16.53C29.0017 16.53 29.0017 17.0093 28.6822 16.9294C27.5638 16.8495 26.4455 16.7697 25.2473 16.6898C24.2088 17.4886 23.1703 18.2075 22.052 18.9264C23.41 19.0862 24.6881 19.4856 25.8863 19.9649C26.126 20.0448 25.9662 20.4442 25.7266 20.3643C24.3686 19.885 22.8508 19.4057 21.413 19.3259C20.3745 19.9649 19.336 20.6039 18.2177 21.1631C19.4159 21.5625 20.6142 22.1217 21.8124 22.6809C22.052 22.8406 21.8922 23.2401 21.6526 23.0803C20.3745 22.4412 19.0165 21.8821 17.6585 21.4028C16.7 21.8821 15.6615 22.3613 14.623 22.8406C14.3834 22.9205 14.2236 22.5211 14.4633 22.4412C15.5017 22.0418 16.4603 21.5625 17.4189 21.0034C18.0579 19.7253 18.4573 18.4472 18.697 17.0093C19.0165 16.8495 19.4958 16.9294 19.4159 17.169Z" fill="#0C5149"/>
<path d="M48.4129 21.8029C48.4129 21.8029 48.4928 21.8029 48.4129 21.8029C48.8123 21.3236 48.9721 20.8443 49.2117 20.2852C49.5313 21.1639 50.0105 22.0425 51.049 22.0425C51.7679 22.0425 52.407 21.8029 53.1259 21.4834C52.8863 22.3621 52.4869 23.5603 52.7265 24.5189C52.8863 25.2378 53.6052 25.8768 54.3242 25.9567C53.6052 26.1165 52.8863 26.3561 52.2472 26.6757C51.6082 27.0751 51.049 27.6342 50.8893 28.3532C50.7295 29.0721 51.1289 29.9508 51.8478 30.1905C50.4898 29.9508 49.1319 29.9508 47.7739 30.1106C47.1348 30.1904 46.4958 30.3502 46.2561 30.9094C46.0964 31.3088 46.0964 31.7082 46.336 32.1076C46.4958 32.507 46.8153 32.8265 47.0549 33.0662C44.4987 32.1875 41.8627 31.5484 39.2266 31.2289C40.5845 28.5928 41.623 25.797 42.5017 23.0011C42.5816 24.5189 44.1792 24.439 44.978 23.5603C45.4573 23.0011 45.697 22.3621 45.9366 21.723C46.0964 22.2023 46.6555 22.5218 47.2147 22.4419C47.6141 22.5218 48.0934 22.2023 48.4129 21.8029Z" fill="#0F7A70"/>
<path d="M42.9013 26.1964C42.7415 27.4745 42.3421 28.6727 41.8628 29.7911C42.8214 29.3118 43.7001 28.7526 44.5788 28.1934C44.5788 28.1135 44.5788 28.1135 44.5788 28.0337C45.0581 26.6757 45.4575 25.3976 45.777 23.9597C45.8569 23.7201 46.2563 23.8798 46.1764 24.1195C45.8569 25.3976 45.5374 26.5958 45.0581 27.794C46.2563 26.9952 47.4545 26.1964 48.5729 25.3177C48.6528 24.439 48.7326 23.5603 48.6527 22.6816C48.6527 22.442 49.0521 22.3621 49.0521 22.6017C49.132 23.4005 49.132 24.1994 49.0521 24.9982C49.9308 24.3591 50.7297 23.6402 51.5285 22.8414C51.7681 22.6816 52.0078 23.0011 51.7681 23.1609C50.9693 23.8798 50.0906 24.5988 49.2918 25.3177C50.2504 25.3976 51.2888 25.4774 52.2474 25.5573C52.487 25.5573 52.4871 26.0366 52.1675 25.9567C51.0492 25.8769 49.9308 25.797 48.7326 25.7171C47.6942 26.5159 46.6557 27.2348 45.5374 27.9538C46.8953 28.1135 48.1735 28.513 49.3717 28.9922C49.6113 29.0721 49.4516 29.4715 49.2119 29.3916C47.8539 28.9124 46.3362 28.4331 44.8983 28.3532C43.8599 28.9922 42.8214 29.6313 41.7031 30.1905C42.9013 30.5899 44.0995 31.149 45.2977 31.7082C45.5374 31.868 45.3776 32.2674 45.138 32.1076C43.8598 31.4686 42.5019 30.9094 41.1439 30.4301C40.1853 30.9094 39.1469 31.3887 38.1084 31.868C37.8687 31.9479 37.709 31.5485 37.9486 31.4686C38.9871 31.0692 39.9457 30.5899 40.9042 30.0307C41.5433 28.7526 41.9427 27.4745 42.1824 26.0366C42.5019 25.8769 42.9013 25.8769 42.9013 26.1964Z" fill="#0C5149"/>
<path d="M68.0633 36.1818C68.0633 36.1818 68.0633 36.1019 68.0633 36.1818C68.4627 35.7025 68.6225 35.2232 68.8621 34.6641C69.1817 35.5428 69.6609 36.4214 70.6994 36.4214C71.4183 36.4214 72.0574 36.1818 72.7763 35.8623C72.5367 36.741 72.1373 37.9392 72.3769 38.8978C72.5367 39.6167 73.2556 40.2557 73.9745 40.3356C73.2556 40.4954 72.5367 40.7351 71.8976 41.0546C71.2586 41.454 70.6994 42.0131 70.5396 42.7321C70.3799 43.451 70.7793 44.3297 71.4982 44.5694C70.1402 44.3297 68.7822 44.3297 67.4243 44.4895C66.7852 44.5694 66.1462 44.7291 65.9065 45.2883C65.7467 45.6877 65.7468 46.0871 65.9864 46.4865C66.1462 46.8859 66.4657 47.2055 66.7053 47.4451C64.1491 46.5664 61.513 45.9273 58.877 45.6078C60.2349 42.9717 61.2734 40.1759 62.1521 37.38C62.232 38.8978 63.8296 38.8179 64.6284 37.9392C65.1077 37.38 65.3473 36.741 65.587 36.1019C65.7468 36.5812 66.3059 36.9007 66.8651 36.8208C67.2645 36.9007 67.7438 36.5812 68.0633 36.1818Z" fill="#0F7A70"/>
<path d="M62.5517 40.4952C62.3919 41.7733 61.9925 42.9715 61.5132 44.0899C62.4718 43.6106 63.3505 43.0514 64.2292 42.4923C64.2292 42.4124 64.2292 42.4124 64.2292 42.3325C64.7085 40.9745 65.1079 39.6964 65.4274 38.2585C65.5073 38.0189 65.9067 38.1787 65.8268 38.4183C65.5073 39.6964 65.1877 40.8946 64.7085 42.0928C65.9067 41.294 67.1049 40.4952 68.2232 39.6165C68.3031 38.7378 68.383 37.8591 68.3031 36.9804C68.3031 36.7408 68.7025 36.6609 68.7025 36.9006C68.7824 37.6994 68.7824 38.4982 68.7025 39.297C69.5812 38.6579 70.38 37.939 71.1789 37.1402C71.4185 36.9804 71.6581 37.3 71.4185 37.4597C70.6197 38.1787 69.741 38.8976 68.9422 39.6165C69.9008 39.6964 70.9392 39.7763 71.8978 39.8562C72.1374 39.8562 72.1374 40.3355 71.8179 40.2556C70.6996 40.1757 69.5812 40.0958 68.383 40.0159C67.3445 40.8147 66.3061 41.5337 65.1877 42.2526C66.5457 42.4124 67.8238 42.8118 69.022 43.2911C69.2617 43.371 69.1019 43.7704 68.8623 43.6905C67.5043 43.2112 65.9866 42.7319 64.5487 42.652C63.5102 43.2911 62.4718 43.9301 61.3535 44.4893C62.5517 44.8887 63.7499 45.4479 64.9481 46.007C65.1878 46.1668 65.028 46.5662 64.7883 46.4064C63.5102 45.7674 62.1523 45.2082 60.7943 44.7289C59.8357 45.2082 58.7972 45.6875 57.7588 46.1668C57.5191 46.2467 57.3594 45.8473 57.599 45.7674C58.6375 45.368 59.5961 44.8887 60.5546 44.3295C61.1937 43.0514 61.5931 41.7733 61.8327 40.3354C62.1522 40.1757 62.5517 40.2556 62.5517 40.4952Z" fill="#0C5149"/>
<path d="M46.2567 40.0959C46.2567 40.016 46.3366 40.016 46.2567 40.0959C46.6561 39.6166 46.8158 39.1373 47.0555 38.5781C47.375 39.4568 47.8543 40.3355 48.8928 40.3355C49.6117 40.3355 50.2508 40.0959 50.9697 39.7763C50.7301 40.655 50.3307 41.8533 50.5703 42.8118C50.7301 43.5308 51.449 44.1698 52.1679 44.2497C51.449 44.4095 50.7301 44.6491 50.091 44.9686C49.452 45.368 48.8928 45.9272 48.733 46.6462C48.5732 47.3651 48.9727 48.2438 49.6916 48.4834C48.3336 48.2438 46.9756 48.2438 45.6176 48.4035C44.9786 48.4834 44.3395 48.6432 44.0999 49.2023C43.9401 49.6018 43.9401 50.0012 44.1798 50.4006C44.3395 50.8 44.6591 51.1195 44.8987 51.3592C42.3425 50.4805 39.7064 49.8414 37.0703 49.5219C38.4283 46.8858 39.4668 44.0899 40.3455 41.2941C40.4253 42.8118 42.023 42.732 42.8218 41.8533C43.3011 41.2941 43.5407 40.655 43.7804 40.016C43.9401 40.4953 44.4993 40.8148 45.0585 40.7349C45.4579 40.8148 45.9372 40.4953 46.2567 40.0959Z" fill="#0F7A70"/>
<path d="M40.745 44.4093C40.5853 45.6874 40.1859 46.8856 39.7066 48.0039C40.6651 47.5247 41.5438 46.9655 42.4225 46.4063C42.4225 46.3264 42.4225 46.3265 42.4225 46.2466C42.9018 44.8886 43.3012 43.6105 43.6208 42.1726C43.7006 41.933 44.1 42.0927 44.0202 42.3324C43.7006 43.6105 43.3811 44.8087 42.9018 46.0069C44.1 45.2081 45.2983 44.4093 46.4166 43.5306C46.4965 42.6519 46.5764 41.7732 46.4965 40.8945C46.4965 40.6549 46.8959 40.575 46.8959 40.8146C46.9758 41.6134 46.9758 42.4122 46.8959 43.2111C47.7746 42.572 48.5734 41.8531 49.3722 41.0543C49.6119 40.8945 49.8515 41.214 49.6119 41.3738C48.813 42.0927 47.9343 42.8116 47.1355 43.5306C48.0941 43.6105 49.1326 43.6904 50.0912 43.7702C50.3308 43.7702 50.3308 44.2495 50.0113 44.1696C48.8929 44.0898 47.7746 44.0099 46.5764 43.93C45.5379 44.7288 44.4995 45.4478 43.3811 46.1667C44.7391 46.3264 46.0172 46.7258 47.2154 47.2051C47.4551 47.285 47.2953 47.6844 47.0556 47.6045C45.6977 47.1253 44.1799 46.646 42.742 46.5661C41.7036 47.2051 40.6651 47.8442 39.5468 48.4034C40.745 48.8028 41.9432 49.3619 43.1415 49.9211C43.3811 50.0809 43.2214 50.4803 42.9817 50.3205C41.7036 49.6815 40.3456 49.1223 38.9876 48.643C38.0291 49.1223 36.9906 49.6016 35.9521 50.0809C35.7125 50.1608 35.5527 49.7613 35.7924 49.6815C36.8308 49.2821 37.7894 48.8028 38.748 48.2436C39.387 46.9655 39.7864 45.6874 40.0261 44.2495C40.3456 44.0898 40.8249 44.1696 40.745 44.4093Z" fill="#0C5149"/>
<path d="M25.9657 34.1037C25.9657 34.0238 25.9657 34.0238 25.9657 34.1037C26.3651 33.6244 26.5248 33.1451 26.7645 32.5859C27.084 33.4646 27.5633 34.3433 28.6018 34.3433C29.3207 34.3433 29.9597 34.1037 30.6787 33.7842C30.439 34.6629 30.0396 35.8611 30.2793 36.8196C30.439 37.5386 31.158 38.1776 31.8769 38.2575C31.158 38.4173 30.439 38.6569 29.8 38.9765C29.1609 39.3759 28.6018 39.935 28.442 40.654C28.2822 41.3729 28.6816 42.2516 29.4006 42.4912C28.0426 42.2516 26.6846 42.2516 25.3266 42.4113C24.6876 42.4912 24.0485 42.651 23.8089 43.2102C23.6491 43.6096 23.6491 44.009 23.8887 44.4084C24.0485 44.8078 24.368 45.1273 24.6077 45.367C22.0515 44.4883 19.4154 43.8492 16.7793 43.5297C18.1373 40.8936 19.1757 38.0978 20.0544 35.3019C20.1343 36.8196 21.732 36.7398 22.5308 35.8611C23.0101 35.3019 23.2497 34.6628 23.4893 34.0238C23.6491 34.5031 24.2083 34.8226 24.7674 34.7427C25.1668 34.7427 25.6461 34.5031 25.9657 34.1037Z" fill="#0F7A70"/>
<path d="M20.454 38.4171C20.2943 39.6952 19.8949 40.8934 19.4156 42.0118C20.3741 41.5325 21.2528 40.9733 22.1315 40.4141C22.1315 40.3342 22.1315 40.3343 22.1315 40.2544C22.6108 38.8964 23.0102 37.6183 23.3298 36.1804C23.4096 35.9408 23.809 36.1005 23.7292 36.3402C23.4096 37.6183 23.0901 38.8165 22.6108 40.0147C23.809 39.2159 25.0073 38.4171 26.1256 37.5384C26.2055 36.6597 26.2854 35.781 26.2055 34.9023C26.2055 34.6627 26.6049 34.5828 26.6049 34.8224C26.6848 35.6212 26.6848 36.4201 26.6049 37.2189C27.4836 36.5798 28.2824 35.8609 29.0812 35.0621C29.3208 34.9023 29.5605 35.2218 29.3209 35.3816C28.522 36.1005 27.6433 36.8195 26.8445 37.5384C27.8031 37.6183 28.8416 37.6982 29.8002 37.7781C30.0398 37.7781 30.0398 38.2573 29.7203 38.1775C28.6019 38.0976 27.4836 38.0177 26.2854 37.9378C25.2469 38.7366 24.2084 39.4556 23.0901 40.1745C24.4481 40.3343 25.7262 40.7337 26.9244 41.2129C27.1641 41.2928 27.0043 41.6922 26.7646 41.6124C25.4067 41.1331 23.8889 40.6538 22.4511 40.5739C21.4126 41.213 20.3741 41.852 19.2558 42.4112C20.454 42.8106 21.6522 43.3697 22.8505 43.9289C23.0901 44.0887 22.9303 44.4881 22.6907 44.3283C21.4126 43.6893 20.0546 43.1301 18.6966 42.6508C17.738 43.1301 16.6996 43.6094 15.6611 44.0887C15.4215 44.1686 15.2617 43.7692 15.5014 43.6893C16.5398 43.2899 17.4984 42.8106 18.457 42.2514C19.096 40.9733 19.4954 39.6952 19.7351 38.2573C20.0546 38.0976 20.454 38.1774 20.454 38.4171Z" fill="#0C5149"/>
<path d="M22.2118 52.6369C22.2916 52.6369 22.2916 52.6369 22.2118 52.6369C22.6112 52.1576 22.7709 51.6783 23.0106 51.1191C23.3301 51.9978 23.8094 52.8765 24.8478 52.8765C25.5668 52.8765 26.2058 52.6369 26.9248 52.3174C26.6851 53.1961 26.2857 54.3943 26.5254 55.3529C26.6851 56.0718 27.404 56.7108 28.123 56.7907C27.404 56.9505 26.6851 57.1901 26.0461 57.5097C25.407 57.9091 24.8478 58.4682 24.6881 59.1872C24.5283 59.9061 24.9277 60.7848 25.6467 61.0245C24.2887 60.7848 22.9307 60.7848 21.5727 60.9446C20.9336 61.0245 20.2946 61.1842 20.0549 61.7434C19.8952 62.1428 19.8952 62.5422 20.1348 62.9416C20.3745 63.341 20.6141 63.6605 20.8538 63.9002C18.2976 63.0215 15.6615 62.3824 13.0254 62.0629C14.3834 59.4268 15.4218 56.631 16.3005 53.8351C16.3804 55.3529 17.978 55.273 18.7768 54.3943C19.2561 53.8351 19.4958 53.1961 19.7354 52.557C19.8952 53.0363 20.4544 53.3558 21.0135 53.2759C21.4928 53.3558 21.8922 53.0363 22.2118 52.6369Z" fill="#0F7A70"/>
<path d="M16.7001 57.0304C16.5403 58.3085 16.1409 59.5067 15.6616 60.6251C16.6202 60.1458 17.4989 59.5866 18.3776 59.0274C18.3776 58.9475 18.3776 58.9475 18.3776 58.8676C18.8569 57.5097 19.2563 56.2316 19.5758 54.7937C19.6557 54.554 20.0551 54.7138 19.9752 54.9535C19.6557 56.2316 19.3362 57.4298 18.8569 58.628C20.0551 57.8292 21.2533 57.0304 22.3717 56.1517C22.4516 55.273 22.5314 54.3943 22.4516 53.5156C22.4516 53.2759 22.851 53.1961 22.851 53.4357C22.9309 54.2345 22.9309 55.0333 22.851 55.8322C23.7297 55.1931 24.5285 54.4742 25.3273 53.6754C25.5669 53.5156 25.8066 53.8351 25.5669 53.9949C24.7681 54.7138 23.8894 55.4328 23.0906 56.1517C24.0492 56.2316 25.0877 56.3114 26.0462 56.3913C26.2859 56.3913 26.2859 56.8706 25.9663 56.7907C24.848 56.7108 23.7297 56.631 22.5315 56.5511C21.493 57.3499 20.4545 58.0688 19.3362 58.7878C20.6942 58.9475 21.9723 59.3469 23.1705 59.8262C23.4101 59.9061 23.2504 60.3055 23.0107 60.2256C21.6528 59.7464 20.135 59.2671 18.6971 59.1872C17.6587 59.8262 16.6202 60.4653 15.5019 61.0245C16.7001 61.4239 17.8983 61.983 19.0965 62.5422C19.3362 62.702 19.1764 63.1014 18.9368 62.9416C17.6587 62.3026 16.3007 61.7434 14.9427 61.2641C13.9841 61.7434 12.9457 62.2227 11.9072 62.7019C11.6676 62.7818 11.5078 62.3824 11.7475 62.3025C12.7859 61.9031 13.7445 61.4239 14.7031 60.8647C15.3421 59.5866 15.7415 58.3085 15.9812 56.8706C16.3007 56.7108 16.78 56.7109 16.7001 57.0304Z" fill="#0C5149"/>
<path d="M54.4041 57.7502C54.484 57.7502 54.484 57.7502 54.4041 57.7502C54.8035 57.2709 54.9633 56.7916 55.203 56.2324C55.5225 57.1111 56.0018 57.9898 57.0402 57.9898C57.7592 57.9898 58.3982 57.7502 59.1171 57.4306C58.8775 58.3093 58.4781 59.5076 58.7177 60.4661C58.8775 61.1851 59.5964 61.8241 60.3154 61.904C59.5964 62.0637 58.8775 62.3034 58.2384 62.6229C57.5994 63.0223 57.0402 63.5815 56.8805 64.3004C56.7207 65.0194 57.1201 65.8981 57.839 66.1377C56.481 65.8981 55.1231 65.8981 53.7651 66.0578C53.126 66.1377 52.487 66.2975 52.2473 66.8566C52.0876 67.2561 52.0876 67.6555 52.3272 68.0549C52.5669 68.4543 52.8065 68.7738 53.0461 69.0135C50.4899 68.1348 47.8539 67.4957 45.2178 67.1762C46.5758 64.5401 47.6142 61.7442 48.4929 58.9484C48.5728 60.4661 50.1704 60.3862 50.9692 59.5075C51.4485 58.9484 51.6882 58.3093 51.9278 57.6703C52.0876 58.1496 52.6467 58.4691 53.2059 58.3892C53.6852 58.4691 54.0846 58.1496 54.4041 57.7502Z" fill="#0F7A70"/>
<path d="M48.8925 62.1437C48.7327 63.4218 48.3333 64.62 47.854 65.7383C48.8126 65.259 49.6913 64.6999 50.57 64.1407C50.57 64.0608 50.57 64.0608 50.57 63.9809C51.0493 62.6229 51.4487 61.3448 51.7682 59.907C51.8481 59.6673 52.2475 59.8271 52.1676 60.0667C51.8481 61.3448 51.5286 62.5431 51.0493 63.7413C52.2475 62.9425 53.4457 62.1437 54.5641 61.265C54.644 60.3863 54.7238 59.5076 54.6439 58.6289C54.6439 58.3892 55.0433 58.3093 55.0433 58.549C55.1232 59.3478 55.1232 60.1466 55.0433 60.9454C55.922 60.3064 56.7209 59.5874 57.5197 58.7886C57.7593 58.6289 57.999 58.9484 57.7593 59.1081C56.9605 59.8271 56.0818 60.546 55.283 61.265C56.2416 61.3448 57.28 61.4247 58.2386 61.5046C58.4783 61.5046 58.4783 61.9839 58.1587 61.904C57.0404 61.8241 55.922 61.7442 54.7238 61.6644C53.6854 62.4632 52.6469 63.1821 51.5286 63.901C52.8866 64.0608 54.1647 64.4602 55.3629 64.9395C55.6025 65.0194 55.4428 65.4188 55.2031 65.3389C53.8451 64.8596 52.3274 64.3803 50.8895 64.3004C49.8511 64.9395 48.8126 65.5786 47.6943 66.1377C48.8925 66.5371 50.0907 67.0963 51.2889 67.6555C51.5286 67.8152 51.3688 68.2146 51.1292 68.0549C49.8511 67.4158 48.4931 66.8567 47.1351 66.3774C46.1765 66.8567 45.1381 67.336 44.0996 67.8152C43.86 67.8951 43.7002 67.4957 43.9398 67.4158C44.9783 67.0164 45.9369 66.5371 46.8955 65.978C47.5345 64.6999 47.9339 63.4218 48.1736 61.9839C48.4931 61.8241 48.9724 61.904 48.8925 62.1437Z" fill="#0C5149"/>
<path d="M5.51644 29.4719C5.51644 29.4719 5.59633 29.4719 5.51644 29.4719C5.91585 28.9926 6.07561 28.5133 6.31526 27.9541C6.63478 28.8328 7.11409 29.7115 8.15255 29.7115C8.87148 29.7115 9.51054 29.4718 10.2295 29.1523C9.98983 30.031 9.59042 31.2293 9.83006 32.1878C9.98983 32.9068 10.7088 33.5458 11.4277 33.6257C10.7088 33.7855 9.98982 34.0251 9.35077 34.3446C8.71172 34.744 8.15254 35.3032 7.99277 36.0221C7.83301 36.7411 8.23243 37.6198 8.95136 37.8594C7.59338 37.6198 6.23539 37.6198 4.8774 37.7795C4.23835 37.8594 3.5993 38.0192 3.35966 38.5783C3.1999 38.9778 3.1999 39.3772 3.43955 39.7766C3.59931 40.176 3.91883 40.4955 4.15847 40.7351C1.60227 39.8564 -1.03383 39.2174 -3.66992 38.8979C-2.31194 36.2618 -1.27347 33.4659 -0.394778 30.6701C-0.314896 32.1878 1.28274 32.1079 2.08155 31.2292C2.56084 30.6701 2.80049 30.031 3.04014 29.392C3.1999 29.8713 3.75905 30.1908 4.31822 30.1109C4.71763 30.1908 5.19692 29.8713 5.51644 29.4719Z" fill="#0F7A70"/>
<path d="M0.00477886 33.8653C-0.154984 35.1434 -0.554381 36.3417 -1.03367 37.46C-0.0750928 36.9807 0.803598 36.4216 1.68229 35.8624C1.68229 35.7825 1.68229 35.7825 1.68229 35.7026C2.16158 34.3446 2.56099 33.0665 2.88052 31.6287C2.9604 31.389 3.35981 31.5488 3.27992 31.7884C2.9604 33.0665 2.64088 34.2648 2.16159 35.463C3.35981 34.6642 4.55803 33.8653 5.67637 32.9866C5.75625 32.1079 5.83613 31.2292 5.75625 30.3505C5.75625 30.1109 6.15566 30.031 6.15566 30.2707C6.23554 31.0695 6.23554 31.8683 6.15566 32.6671C7.03436 32.0281 7.83318 31.3091 8.63199 30.5103C8.87163 30.3506 9.11127 30.6701 8.87162 30.8298C8.07281 31.5488 7.19411 32.2677 6.3953 32.9866C7.35387 33.0665 8.39234 33.1464 9.35092 33.2263C9.59056 33.2263 9.59056 33.7056 9.27103 33.6257C8.15269 33.5458 7.03436 33.4659 5.83614 33.3861C4.79768 34.1849 3.75922 34.9038 2.64088 35.6227C3.99887 35.7825 5.27696 36.1819 6.47518 36.6612C6.71483 36.7411 6.55505 37.1405 6.31541 37.0606C4.95742 36.5813 3.43968 36.102 2.00182 36.0221C0.963356 36.6612 -0.0751028 37.3002 -1.19344 37.8594C0.00477886 38.2588 1.203 38.818 2.40122 39.3772C2.64087 39.5369 2.48112 39.9363 2.24147 39.7766C0.963371 39.1375 -0.394614 38.5783 -1.7526 38.0991C-2.71118 38.5783 -3.74965 39.0576 -4.78811 39.5369C-5.02775 39.6168 -5.1875 39.2174 -4.94786 39.1375C-3.9094 38.7381 -2.95083 38.2588 -1.99226 37.6996C-1.35321 36.4215 -0.953794 35.1434 -0.714149 33.7056C-0.394623 33.5458 0.00477886 33.5458 0.00477886 33.8653Z" fill="#0C5149"/>
<path d="M69.0223 14.214C69.1022 14.214 69.1022 14.1342 69.0223 14.214C69.4217 13.7347 69.5815 13.2555 69.8211 12.6963C70.1406 13.575 70.6199 14.4537 71.6584 14.4537C72.3773 14.4537 73.0164 14.214 73.7353 13.8945C73.4957 14.7732 73.0963 15.9714 73.3359 16.93C73.4957 17.6489 74.2146 18.288 74.9336 18.3679C74.2146 18.5276 73.4957 18.7673 72.8566 19.0868C72.2176 19.4063 71.6584 20.0454 71.4986 20.7643C71.3389 21.4832 71.7383 22.3619 72.4572 22.6016C71.0992 22.3619 69.7412 22.3619 68.3833 22.5217C67.7442 22.6016 67.1052 22.7613 66.8655 23.3205C66.7058 23.7199 66.7058 24.1193 66.9454 24.5187C67.1052 24.9181 67.4247 25.2377 67.6643 25.4773C65.1081 24.5986 62.472 23.9596 59.8359 23.64C61.1939 21.0039 62.2324 18.2081 63.1111 15.4123C63.191 16.93 64.7886 16.8501 65.5874 15.9714C66.0667 15.4122 66.3064 14.7732 66.546 14.1341C66.7058 14.6134 67.2649 14.933 67.8241 14.8531C68.3034 14.933 68.7028 14.6134 69.0223 14.214Z" fill="#0F7A70"/>
<path d="M63.5106 18.5274C63.3509 19.8055 62.9515 21.0038 62.4722 22.1221C63.4308 21.6428 64.3095 21.0837 65.1882 20.5245C65.1882 20.4446 65.1882 20.4446 65.1882 20.3647C65.6674 19.0067 66.0668 17.7286 66.3864 16.2908C66.4663 16.0511 66.8657 16.2109 66.7858 16.4505C66.4663 17.7286 66.1467 18.9269 65.6674 20.1251C66.8657 19.3263 68.0639 18.5274 69.1822 17.6487C69.2621 16.77 69.342 15.8914 69.2621 15.0127C69.2621 14.773 69.6615 14.6931 69.6615 14.9328C69.7414 15.7316 69.7414 16.5304 69.6615 17.3292C70.5402 16.6902 71.339 15.9712 72.1378 15.1724C72.3775 15.0127 72.6171 15.3322 72.3775 15.492C71.5787 16.2109 70.7 16.9298 69.9012 17.6487C70.8597 17.7286 71.8982 17.8085 72.8568 17.8884C73.0964 17.8884 73.0964 18.3677 72.7769 18.2878C71.6586 18.2079 70.5402 18.128 69.342 18.0482C68.3035 18.847 67.2651 19.5659 66.1467 20.2848C67.5047 20.4446 68.7828 20.844 69.981 21.3233C70.2207 21.4032 70.0609 21.8026 69.8213 21.7227C68.4633 21.2434 66.9455 20.7641 65.5077 20.6843C64.4692 21.3233 63.4308 21.9623 62.3124 22.5215C63.5106 22.9209 64.7089 23.4801 65.9071 24.0393C66.1467 24.199 65.987 24.5984 65.7473 24.4387C64.4692 23.7996 63.1112 23.2404 61.7533 22.7612C60.7947 23.2404 59.7562 23.7197 58.7178 24.199C58.4781 24.2789 58.3184 23.8795 58.558 23.7996C59.5965 23.4002 60.555 22.9209 61.5136 22.3617C62.1527 21.0836 62.5521 19.8055 62.7917 18.3677C63.1112 18.2878 63.5905 18.2878 63.5106 18.5274Z" fill="#0C5149"/>
<path d="M69.5812 35.2229C61.5132 33.3058 53.525 31.2289 45.5369 29.1519C47.454 21.9626 49.2913 14.6934 50.9688 7.34431C48.173 6.62538 45.3771 5.90643 42.5813 5.1875C40.0251 12.2171 37.6286 19.2466 35.3919 26.3561C27.244 24.1993 19.0961 21.9626 11.0281 19.646C10.3092 22.6017 9.6701 25.6372 8.95117 28.5928C16.7796 31.0691 24.6079 33.3857 32.5162 35.5424C30.2795 42.8117 28.2825 50.1608 26.3653 57.5098C29.7203 58.4684 33.0754 59.427 36.3505 60.3856C38.6671 53.0365 40.9038 45.6874 42.9807 38.2584C50.9688 40.2555 58.9569 42.0927 67.025 43.6904C67.9037 40.9744 68.7025 38.0987 69.5812 35.2229Z" fill="#FFF5CF"/>
<path d="M41.4636 28.3531C41.4636 28.3531 29.3216 10.6993 26.2062 10.1402C23.0909 9.58099 18.1382 25.717 19.4962 30.0306C20.8542 34.2644 41.4636 28.3531 41.4636 28.3531Z" fill="#BD711B"/>
<path d="M41.6231 28.2734C41.6231 28.2734 25.1675 29.6314 23.0107 30.9894C20.8539 32.3474 23.8096 40.8947 26.206 41.8533C28.6024 42.8119 41.6231 28.2734 41.6231 28.2734Z" fill="#A85C11"/>
<path d="M38.9072 28.3531C38.9072 28.3531 51.848 10.6993 55.1231 10.1402C58.3983 9.58099 64.4693 25.717 63.0314 30.0306C61.5935 34.2644 38.9072 28.3531 38.9072 28.3531Z" fill="#BD711B"/>
<path d="M38.7471 28.2734C38.7471 28.2734 55.2027 29.6314 57.3595 30.9894C59.5163 32.3474 56.5606 40.8947 54.1642 41.8533C51.7678 42.8119 38.7471 28.2734 38.7471 28.2734Z" fill="#A85C11"/>
<path d="M38.3485 32.5075C38.3485 32.5075 37.1503 25.7176 38.4284 24.9188C39.7065 24.0401 40.8248 24.759 41.7834 24.6791C42.742 24.5993 43.7804 32.5075 41.9432 33.1466C40.2657 33.6258 38.3485 32.5075 38.3485 32.5075Z" fill="#F89226"/>
<path d="M42.502 25.238C42.502 25.238 54.1646 11.3387 55.4427 11.4984C56.641 11.5783 57.9191 13.4156 57.9191 13.4156L42.502 25.238Z" fill="#F89226"/>
<path d="M38.4281 25.238C38.4281 25.238 27.4044 11.3387 26.2861 11.4984C25.0879 11.5783 23.8896 13.4156 23.8896 13.4156L38.4281 25.238Z" fill="#F89226"/>
<path d="M37.7889 31.5479C37.7889 31.5479 25.3274 38.8171 25.2475 39.8555C25.1677 40.894 27.0848 41.4532 27.0848 41.4532L37.7889 31.5479Z" fill="#F89226"/>
<path d="M42.9814 31.9473C42.9814 31.9473 55.0435 38.897 55.1234 39.9354C55.2033 40.9739 53.366 41.533 53.366 41.533L42.9814 31.9473Z" fill="#F89226"/>
</g>
</svg>
