<svg width="114" height="117" viewBox="0 0 114 117" fill="none" xmlns="http://www.w3.org/2000/svg">
<path d="M27.3885 67.9051C27.8646 64.9025 24.6613 63.0274 24.8777 60.2048C25.1936 56.8325 32.0954 56.221 34.7298 55.9717C37.0004 55.7246 39.2312 55.6973 41.5158 55.4982C44.1022 55.2629 46.6385 54.6778 49.1888 54.1407C54.3713 52.9904 59.5936 51.6203 64.6079 49.8944C73.821 46.6811 81.5192 40.4223 91.3108 38.6538C93.6353 38.2348 96.0261 38.5773 96.9647 40.5416C97.9173 42.554 97.349 45.0629 97.0464 47.2339C96.895 48.3194 96.7917 49.3908 96.8463 50.4682C96.9311 52.0053 98.5567 52.9359 99.7425 53.7867C102.086 55.3925 104.058 56.7947 102.902 59.7877C102.868 59.8496 102.834 59.9116 102.8 59.9736C102.8 59.9736 102.814 60.0216 102.766 60.0356C101.023 63.5126 96.6369 65.7838 93.0579 67.6108C87.9942 70.2361 82.9924 72.8954 77.6446 75.0832C65.5521 80.0232 52.2073 83.3508 39.29 82.4404C34.6204 82.1392 29.1908 81.0188 26.3765 77.6243C23.8101 74.3655 26.8468 71.3955 27.3885 67.9051Z" fill="#F1F1F1"/>
<mask id="mask0_664_734" style="mask-type:alpha" maskUnits="userSpaceOnUse" x="24" y="38" width="80" height="45">
<path d="M27.3885 67.9051C27.8646 64.9025 24.6613 63.0274 24.8777 60.2048C25.1936 56.8325 32.0954 56.221 34.7298 55.9717C37.0004 55.7246 39.2312 55.6973 41.5158 55.4982C44.1022 55.2629 46.6385 54.6778 49.1888 54.1407C54.3713 52.9904 59.5936 51.6203 64.6079 49.8944C73.821 46.6811 81.5192 40.4223 91.3108 38.6538C93.6353 38.2348 96.0261 38.5773 96.9647 40.5416C97.9173 42.554 97.349 45.0629 97.0464 47.2339C96.895 48.3194 96.7917 49.3908 96.8463 50.4682C96.9311 52.0053 98.5567 52.9359 99.7425 53.7867C102.086 55.3925 104.058 56.7947 102.902 59.7876C102.868 59.8496 102.834 59.9116 102.8 59.9736C102.8 59.9736 102.814 60.0216 102.766 60.0356C101.023 63.5126 96.6369 65.7838 93.0579 67.6108C87.9942 70.2361 82.9924 72.8954 77.6446 75.0832C65.5521 80.0232 52.2073 83.3508 39.29 82.4404C34.6204 82.1392 29.1908 81.0188 26.3765 77.6243C23.8101 74.3655 26.8468 71.3955 27.3885 67.9051Z" fill="#DAE0E4"/>
</mask>
<g mask="url(#mask0_664_734)">
<path d="M26.9888 65.4702C26.3063 63.8475 24.9663 62.469 24.8734 60.726C25.3021 62.3709 26.7859 63.7073 26.9888 65.4702Z" fill="#DAE0E4"/>
<path d="M14.6084 62.4774C14.6084 62.4774 15.2983 63.0567 16.5262 64.0515C16.8641 64.3171 17.2021 64.5828 17.5541 64.8964C17.954 65.196 18.4019 65.4816 18.8638 65.8152C19.3258 66.1487 19.8357 66.4683 20.3596 66.8358C20.6215 67.0195 20.8835 67.2033 21.1934 67.373C21.5033 67.5427 21.8133 67.7125 22.1232 67.8822C22.743 68.2217 23.4249 68.5951 24.0587 68.9825C24.2447 69.0844 24.4306 69.1862 24.5546 69.2541C24.7405 69.3559 24.9125 69.4098 25.0984 69.5117C25.4563 69.6674 25.8282 69.871 26.2481 70.0607C26.62 70.2644 27.0259 70.4061 27.4457 70.5957C27.8656 70.7854 28.2375 70.9891 28.6913 71.1168C29.565 71.4341 30.4387 71.7514 31.3124 72.0688C34.937 73.2481 39.0753 74.2253 43.525 74.4866C47.9746 74.748 52.214 74.2899 55.9435 73.5123C56.8689 73.2939 57.7802 73.0275 58.6576 72.8231C59.521 72.5708 60.3704 72.2705 61.1718 71.9842C62.7886 71.4596 64.2054 70.7852 65.5404 70.1868C65.8621 70.0407 66.1838 69.8946 66.5056 69.7485C66.8133 69.5544 67.0871 69.4223 67.3608 69.2903C67.9423 68.9641 68.4279 68.666 68.9754 68.4019C69.461 68.1038 69.9126 67.8676 70.3502 67.5836C70.7399 67.3135 71.1295 67.0434 71.4372 66.8494C72.736 65.9491 73.4673 65.423 73.4673 65.423C73.4673 65.423 72.646 65.8193 71.2151 66.4457C70.8454 66.6058 70.4418 66.8279 70.0241 67.0021C69.6204 67.2242 69.0928 67.3784 68.5792 67.5805C68.0656 67.7827 67.504 67.9989 66.8945 68.2291C66.6207 68.3612 66.285 68.4593 66.0112 68.5914C65.6754 68.6895 65.3397 68.7877 65.0039 68.8858C63.6609 69.2783 62.25 69.7948 60.625 70.1136C59.8436 70.2899 59.0282 70.5282 58.1847 70.6706C57.3413 70.813 56.4498 70.9694 55.5584 71.1258C51.9507 71.6076 47.957 71.8376 43.7273 71.6161C39.5314 71.3326 35.5732 70.6152 32.0327 69.7237C31.1251 69.4683 30.2794 69.2469 29.4817 69.0115C29.0419 68.9318 28.684 68.7761 28.2782 68.6344C27.8723 68.4927 27.4665 68.351 27.1226 68.2432C26.7167 68.1015 26.3729 67.9938 25.967 67.8521C25.7951 67.7982 25.6091 67.6964 25.3892 67.6565C25.2173 67.6026 25.0314 67.5008 24.8594 67.4469C24.1436 67.1355 23.4899 66.858 22.8501 66.6285C22.5542 66.5067 22.1963 66.351 21.9004 66.2293C21.6045 66.1075 21.2946 65.9378 20.9987 65.816C20.4548 65.5584 19.911 65.3009 19.3671 65.0433C18.8713 64.7717 18.4034 64.5961 17.9695 64.3585C17.5356 64.1209 17.1637 63.9172 16.7918 63.7135C15.4141 62.9187 14.6084 62.4774 14.6084 62.4774Z" fill="#E9EDEF"/>
<path d="M95.8179 65.2949C94.5842 64.458 93.0065 63.5134 92.9217 61.9763C92.8671 60.899 92.9705 59.8275 93.1218 58.742C93.516 55.8154 94.1227 50.588 91.2412 48.5667C87.9118 46.2599 82.3867 53.1851 79.9013 55.3692C75.7835 58.9156 70.3678 61.2273 65.2495 62.7753C56.308 65.4927 47.0699 66.8391 37.8274 67.4579C35.1789 67.6593 32.4169 68.3624 29.7581 67.9941C27.8691 67.7653 27.8388 67.3056 27.1423 65.6349C26.4037 63.8203 24.7537 62.2721 24.9265 60.1911C25.2424 56.8188 32.1443 56.2073 34.7787 55.958C37.0493 55.7109 39.28 55.6837 41.5646 55.4845C44.1511 55.2492 46.6873 54.6641 49.2376 54.127C54.4201 52.9767 59.6424 51.6066 64.6567 49.8808C73.8698 46.6674 81.568 40.4086 91.3596 38.6402C93.6841 38.2211 96.0749 38.5636 97.0135 40.528C97.9661 42.5403 97.3978 45.0493 97.0952 47.2202C96.9439 48.3057 96.8405 49.3772 96.8951 50.4545C96.9799 51.9916 98.6055 52.9222 99.7913 53.7731C102.135 55.3789 104.107 56.781 102.951 59.774C102.917 59.836 102.883 59.898 102.849 59.9599C102.849 59.9599 102.863 60.0079 102.815 60.0219C101.601 62.4592 99.0656 64.2936 96.4459 65.8402C96.2179 65.5945 96.0179 65.4447 95.8179 65.2949Z" fill="#DAE0E4"/>
</g>
<path d="M29.0296 108.972C26.683 109.138 24.5077 108.107 23.5248 105.635C22.5841 103.307 23.4364 101.236 25.0548 99.8256C23.6372 99.2507 22.4034 98.4139 21.715 96.949C20.8104 94.9227 21.7026 92.6314 22.949 91.0177C25.5717 87.7 30.8081 86.3779 33.0431 90.4623C36.3625 85.4313 43.8523 88.9692 43.4477 94.7102C47.8878 95.6512 50.7183 99.4575 48.7221 104.206C47.4025 107.351 44.8567 108.616 42.2739 108.329C41.6975 110.632 39.5538 112.56 36.7179 113.545C34.7794 114.216 32.3708 114.347 30.5791 113.205C29.0015 112.26 28.7787 110.608 29.0296 108.972Z" fill="white"/>
<path d="M23.7544 105.882C23.9484 106.19 24.0325 106.477 24.2746 106.771C24.8486 107.488 25.7386 108.217 26.6602 108.521C27.8638 108.898 29.2289 108.759 30.462 108.347C32.6884 107.592 34.3266 106.072 34.8034 104.319C36.8363 104.505 38.8007 103.567 39.8428 101.076C41.3719 97.4007 39.2054 94.4416 35.7069 93.6939C35.8339 91.9908 35.0355 90.5061 33.8837 89.5932C37.4317 86.0572 43.8981 89.4777 43.5252 94.793C47.9653 95.734 50.7958 99.5403 48.7996 104.289C47.4801 107.434 44.9342 108.698 42.3514 108.412C41.775 110.715 39.6313 112.643 36.7954 113.628C34.8569 114.299 32.4483 114.43 30.6566 113.288C29.127 112.329 28.8562 110.69 29.1072 109.055C29.0872 109.165 27.6379 109.016 27.466 108.962C26.9163 108.862 26.4484 108.687 25.9526 108.415C25.3947 108.11 24.8708 107.742 24.4627 107.237C24.0687 106.779 23.9905 106.333 23.7544 105.882Z" fill="#BDBEBE"/>
<path d="M28.1388 73.6744C28.477 67.1718 26.4272 61.9398 23.2699 56.3027C20.1265 50.7136 16.6252 44.9687 16.5236 38.3864C16.3004 28.7159 26.599 25.6539 33.2869 21.4605C38.0666 18.3975 41.5438 13.3724 47.0377 11.5064C50.8809 10.227 55.577 11.5096 59.1817 12.7989C66.4672 15.4594 72.9902 20.3211 78.3983 25.821C81.9623 29.465 84.207 32.8699 86.1845 37.4982C86.7489 38.8951 88.089 40.2736 88.1597 41.7627C88.2467 43.6636 86.3849 45.6655 85.3982 47.0993C84.1939 48.857 82.6176 50.411 80.9573 51.6772C72.3277 58.3123 56.375 66.2548 45.2584 61.1738C44.2467 60.7406 44.6803 67.7465 44.7246 68.2542C44.8462 71.3424 44.168 73.8314 43.1562 76.7823C42.0625 79.8092 39.6863 80.764 38.1506 83.3474C36.7507 85.6829 37.9734 88.0849 37.0051 90.2942C36.1926 92.1456 34.1921 92.7824 33.1656 94.436C27.4262 89.7618 27.7866 80.129 28.1388 73.6744Z" fill="#D10504"/>
<mask id="mask1_664_734" style="mask-type:alpha" maskUnits="userSpaceOnUse" x="16" y="10" width="73" height="85">
<path d="M28.1388 73.6744C28.477 67.1718 26.4272 61.9398 23.2699 56.3027C20.1265 50.7136 16.6252 44.9687 16.5236 38.3864C16.3004 28.7159 26.599 25.6539 33.2869 21.4605C38.0666 18.3975 41.5438 13.3724 47.0377 11.5064C50.8809 10.227 55.577 11.5096 59.1817 12.7989C66.4672 15.4594 72.9902 20.3211 78.3983 25.821C81.9623 29.465 84.207 32.8699 86.1845 37.4982C86.7489 38.8951 88.089 40.2736 88.1597 41.7627C88.2467 43.6636 86.3849 45.6655 85.3982 47.0993C84.1939 48.857 82.6176 50.411 80.9573 51.6772C72.3277 58.3123 56.375 66.2548 45.2584 61.1738C44.2467 60.7406 44.6803 67.7465 44.7246 68.2542C44.8462 71.3424 44.168 73.8314 43.1562 76.7823C42.0625 79.8092 39.6863 80.764 38.1506 83.3474C36.7507 85.6829 37.9734 88.0849 37.0051 90.2942C36.1926 92.1456 34.1921 92.7824 33.1656 94.4361C27.4262 89.7618 27.7866 80.129 28.1388 73.6744Z" fill="#D10504"/>
</mask>
<g mask="url(#mask1_664_734)">
<path d="M46.2166 15.2867C47.226 18.7402 50.8211 20.7091 54.2746 19.6998C57.7281 18.6904 59.697 15.0953 58.6877 11.6418C57.6783 8.18825 54.0832 6.21934 50.6297 7.2287C47.2242 8.22404 45.2073 11.8332 46.2166 15.2867Z" fill="#FF3636"/>
<path d="M26.536 34.523C27.5453 37.9765 31.1404 39.9454 34.594 38.9361C38.0475 37.9267 40.0164 34.3316 39.007 30.8781C37.9977 27.4246 34.4026 25.4557 30.949 26.465C27.4955 27.4744 25.5266 31.0695 26.536 34.523Z" fill="#FF3636"/>
<path d="M16.1229 58.3912C17.1323 61.8447 20.7274 63.8136 24.1809 62.8042C27.6344 61.7949 29.6033 58.1998 28.5939 54.7463C27.5846 51.2927 23.9895 49.3238 20.536 50.3332C17.1304 51.3285 15.1135 54.9377 16.1229 58.3912Z" fill="#FF3636"/>
<path d="M71.1707 54.1734C72.1801 57.6269 75.7752 59.5958 79.2287 58.5865C82.6822 57.5771 84.6512 53.982 83.6418 50.5285C82.6324 47.075 79.0373 45.1061 75.5838 46.1154C72.1783 47.1108 70.1614 50.7199 71.1707 54.1734Z" fill="#FF3636"/>
<path d="M33.9071 75.0601C34.9164 78.5136 38.5115 80.4825 41.9651 79.4732C45.4186 78.4638 47.3875 74.8687 46.3781 71.4152C45.3688 67.9617 41.7737 65.9928 38.3201 67.0021C34.9146 67.9975 32.8977 71.6066 33.9071 75.0601Z" fill="#FF3636"/>
<path d="M65.1053 25.2291C66.1147 28.6826 69.7098 30.6515 73.1633 29.6421C76.6168 28.6328 78.5857 25.0377 77.5764 21.5842C76.567 18.1306 72.9719 16.1617 69.5184 17.1711C66.0649 18.1804 64.096 21.7755 65.1053 25.2291Z" fill="#FF3636"/>
<path d="M7.27427 36.6646C8.28363 40.1181 11.8787 42.087 15.3322 41.0777C18.7858 40.0683 20.7547 36.4732 19.7453 33.0197C18.7359 29.5662 15.1409 27.5973 11.6873 28.6066C8.23381 29.616 6.26491 33.2111 7.27427 36.6646Z" fill="#FF3636"/>
<g opacity="0.5">
<g opacity="0.5">
<g opacity="0.5">
<path opacity="0.5" d="M49.6847 16.8239C49.6847 16.8239 50.0286 16.9317 50.7023 17.0992C51.0321 17.159 51.424 17.2527 51.8778 17.3804C52.3316 17.5081 52.8334 17.6217 53.4112 17.8173C54.5387 18.1125 55.8662 18.5575 57.3037 19.0225C58.7552 19.5354 60.2686 20.0822 61.8721 20.759C65.113 22.0504 68.0042 23.3921 70.1655 24.3743C71.1912 24.8555 72.093 25.2688 72.7467 25.5462C73.3526 25.8377 73.7105 25.9935 73.7105 25.9935C73.7105 25.9935 73.4684 25.6998 73.0124 25.2083C72.5564 24.7168 71.8724 23.9796 71.0024 23.1406C69.2285 21.5244 66.4908 19.4611 63.002 18.0338C61.2406 17.3512 59.4873 16.8744 57.9 16.6095C56.2648 16.3585 54.8436 16.3053 53.6083 16.354C52.9906 16.3783 52.435 16.4366 51.9752 16.4668C51.5155 16.4971 51.0698 16.5753 50.72 16.6255C50.0345 16.7737 49.6847 16.8239 49.6847 16.8239Z" fill="white"/>
</g>
</g>
</g>
<path d="M46.3357 64.5034C45.3197 63.3426 44.3235 62.0719 44.6025 60.5326C45.2638 56.3825 45.3318 52.8744 42.2437 49.612C44.2598 48.1377 45.6391 44.6628 46.2635 42.3458C50.9839 44.2461 51.329 50.2366 54.2275 53.9189C57.0359 57.4714 61.4175 61.2409 66.1749 61.3082C60.9438 61.2231 57.0127 66.1206 52.3342 67.7483C49.978 68.5931 49.1921 68.0419 47.7318 66.0738C47.3717 65.5543 46.8537 65.0289 46.3357 64.5034Z" fill="#A60101"/>
</g>
</svg>
