<svg width="218" height="48" viewBox="0 0 218 48" fill="none" xmlns="http://www.w3.org/2000/svg">
<path d="M44.0278 21.6844C44.0278 21.6844 44.7315 25.1719 44.8889 25.9031H41.7963C42.1018 25.0687 43.2778 21.825 43.2778 21.825C43.2593 21.8531 43.5833 20.9719 43.7685 20.4281L44.0278 21.6844ZM53.8333 7.5V40.5C53.8333 42.9844 51.8426 45 49.3889 45H4.94444C2.49074 45 0.5 42.9844 0.5 40.5V7.5C0.5 5.01562 2.49074 3 4.94444 3H49.3889C51.8426 3 53.8333 5.01562 53.8333 7.5ZM14.6204 31.05L20.4722 16.5H16.537L12.8981 26.4375L12.5 24.4219L11.2037 17.7281C10.9907 16.8 10.3333 16.5375 9.51852 16.5H3.52778L3.46296 16.7906C4.92593 17.1656 6.23148 17.7094 7.37037 18.3937L10.6852 31.05H14.6204ZM23.3611 31.0687L25.6944 16.5H21.9722L19.6481 31.0687H23.3611V31.0687ZM36.3148 26.3063C36.3333 24.6469 35.3333 23.3813 33.1944 22.3406C31.8889 21.675 31.0926 21.225 31.0926 20.5406C31.1111 19.9219 31.7685 19.2844 33.2315 19.2844C34.4444 19.2562 35.3333 19.5469 36 19.8375L36.3333 19.9969L36.8426 16.8469C36.1111 16.5562 34.9444 16.2281 33.5093 16.2281C29.8333 16.2281 27.25 18.2156 27.2315 21.0469C27.2037 23.1375 29.0833 24.3 30.4907 25.0031C31.9259 25.7156 32.4167 26.1844 32.4167 26.8125C32.3981 27.7875 31.25 28.2375 30.1852 28.2375C28.7037 28.2375 27.9074 28.0031 26.6944 27.4594L26.2037 27.225L25.6852 30.4969C26.5556 30.9 28.1667 31.2563 29.8333 31.275C33.7407 31.2844 36.287 29.325 36.3148 26.3063ZM49.3889 31.0687L46.3889 16.5H43.5093C42.6204 16.5 41.9444 16.7625 41.5648 17.7094L36.037 31.0687H39.9444C39.9444 31.0687 40.5833 29.2688 40.7222 28.8844H45.5C45.6111 29.4 45.9444 31.0687 45.9444 31.0687H49.3889Z" fill="#524FED"/>
<path d="M133.833 7.40625V40.4062C133.833 42.8906 131.843 44.9062 129.389 44.9062H84.9444C82.4907 44.9062 80.5 42.8906 80.5 40.4062V7.40625C80.5 4.92188 82.4907 2.90625 84.9444 2.90625H129.389C131.843 2.90625 133.833 4.92188 133.833 7.40625Z" fill="white"/>
<path d="M108.481 20.475C108.481 22.0875 107.509 23.0156 105.796 23.0156H103.546V17.9344H105.806C107.509 17.9344 108.481 18.8531 108.481 20.475V20.475ZM112.88 26.3438C112.88 27.1219 113.546 27.6281 114.593 27.6281C115.926 27.6281 116.926 26.775 116.926 25.575V24.8531L114.75 24.9938C113.519 25.0781 112.88 25.5375 112.88 26.3438ZM133.833 7.40625V40.4062C133.833 42.8906 131.843 44.9062 129.389 44.9062H84.9444C82.4907 44.9062 80.5 42.8906 80.5 40.4062V7.40625C80.5 4.92188 82.4907 2.90625 84.9444 2.90625H129.389C131.843 2.90625 133.833 4.92188 133.833 7.40625ZM92.3333 18.4875C93.1111 18.5531 93.8889 18.0938 94.3796 17.5125C94.8611 16.9125 95.1759 16.1063 95.0926 15.2906C94.4074 15.3188 93.5556 15.75 93.0648 16.35C92.6204 16.8656 92.2407 17.7 92.3333 18.4875V18.4875ZM97.9444 25.4719C97.9259 25.4531 96.1296 24.7594 96.1111 22.6594C96.0926 20.9062 97.5278 20.0625 97.5926 20.0156C96.7778 18.7969 95.5185 18.6656 95.0833 18.6375C93.9537 18.5719 92.9907 19.2844 92.4537 19.2844C91.9074 19.2844 91.0926 18.6656 90.2037 18.6844C89.0463 18.7031 87.963 19.3687 87.3796 20.4281C86.1667 22.5469 87.0648 25.6781 88.2407 27.4031C88.8148 28.2562 89.5093 29.1938 90.4167 29.1562C91.2778 29.1187 91.6204 28.5938 92.6574 28.5938C93.7037 28.5938 94 29.1562 94.9074 29.1469C95.8519 29.1281 96.4352 28.2938 97.0185 27.4406C97.6574 26.4656 97.9259 25.5281 97.9444 25.4719ZM110.481 20.4656C110.481 17.9719 108.769 16.2656 106.324 16.2656H101.583V29.0531H103.546V24.6844H106.259C108.741 24.6844 110.481 22.9594 110.481 20.4656V20.4656ZM118.815 22.6875C118.815 20.8406 117.352 19.65 115.111 19.65C113.028 19.65 111.491 20.8594 111.435 22.5094H113.204C113.352 21.7219 114.074 21.2062 115.056 21.2062C116.259 21.2062 116.926 21.7687 116.926 22.8187V23.5219L114.481 23.6719C112.204 23.8125 110.972 24.7594 110.972 26.4C110.972 28.0594 112.241 29.1562 114.065 29.1562C115.296 29.1562 116.435 28.5281 116.954 27.525H116.991V29.0625H118.806V22.6875H118.815ZM128.278 19.7719H126.287L123.981 27.3281H123.944L121.639 19.7719H119.574L122.898 29.0813L122.722 29.6438C122.426 30.6 121.935 30.975 121.065 30.975C120.907 30.975 120.611 30.9563 120.491 30.9469V32.4844C120.602 32.5219 121.093 32.5312 121.241 32.5312C123.157 32.5312 124.056 31.7906 124.843 29.55L128.278 19.7719Z" fill="#524FED"/>
<path d="M213.833 7.5V40.5C213.833 42.9844 211.843 45 209.389 45H164.944C162.491 45 160.5 42.9844 160.5 40.5V7.5C160.5 5.01562 162.491 3 164.944 3H209.389C211.843 3 213.833 5.01562 213.833 7.5Z" fill="white"/>
<path d="M172.046 18.9188C172.056 17.8125 172.046 16.7156 172.046 15.6094V12.3C172.046 12.1781 172.083 12.1125 172.176 12.0469C173.241 11.2969 174.407 10.9125 175.713 11.0063C176.87 11.0906 177.815 11.6625 178.315 13.0406C178.62 13.875 178.694 14.7469 178.694 15.6375C178.694 16.4531 178.63 17.2594 178.38 18.0375C177.852 19.7062 176.648 20.3531 175.074 20.2781C173.991 20.2313 173.046 19.8094 172.167 19.1813C172.083 19.1063 172.037 19.0313 172.046 18.9188ZM186.389 20.2875C186.815 20.4562 187.25 20.475 187.694 20.4281C188.769 20.3156 189.722 19.8937 190.593 19.2562C190.676 19.2 190.713 19.1344 190.713 19.0219C190.704 18.6562 190.713 18.2813 190.713 17.9156C190.713 17.5406 190.704 17.1656 190.713 16.7906C190.713 16.6594 190.676 16.6031 190.546 16.5844C189.898 16.5 189.259 16.3781 188.611 16.3125C187.963 16.2562 187.315 16.2844 186.685 16.4906C186.065 16.6969 185.602 17.0719 185.417 17.7188C185.269 18.225 185.269 18.7312 185.426 19.2375C185.574 19.7531 185.907 20.1 186.389 20.2875ZM213.833 7.5V40.5C213.833 42.9844 211.843 45 209.389 45H164.944C162.491 45 160.5 42.9844 160.5 40.5V7.5C160.5 5.01562 162.491 3 164.944 3H209.389C211.843 3 213.833 5.01562 213.833 7.5ZM194.62 9.74063C194.657 9.9 194.704 10.0594 194.769 10.2188C196.296 14.025 197.815 17.8406 199.352 21.6469C199.481 21.975 199.509 22.2469 199.37 22.575C199.111 23.1563 198.917 23.7563 198.648 24.3281C198.407 24.8438 198.028 25.2188 197.472 25.3781C197.083 25.4813 196.685 25.5 196.278 25.4625C196.083 25.4438 195.889 25.3969 195.694 25.3875C195.435 25.3687 195.306 25.4906 195.296 25.7625C195.287 26.025 195.287 26.2875 195.296 26.5406C195.306 26.9719 195.444 27.1688 195.87 27.2438C196.306 27.3188 196.741 27.3937 197.185 27.4031C198.509 27.4312 199.565 26.8969 200.25 25.725C200.519 25.2656 200.769 24.7781 200.963 24.2812C202.796 19.5844 204.62 14.8781 206.444 10.1719C206.5 10.0312 206.546 9.89063 206.565 9.74063C206.602 9.51563 206.5 9.40312 206.278 9.39375C205.759 9.38437 205.25 9.39375 204.731 9.39375C204.444 9.39375 204.241 9.525 204.139 9.79688C204.102 9.9 204.056 10.0125 204.019 10.1156L201.324 17.9625C201.13 18.5344 200.935 19.0969 200.722 19.7062C200.685 19.6219 200.667 19.575 200.648 19.5281C199.648 16.725 198.648 13.9125 197.648 11.1094C197.491 10.6688 197.324 10.2188 197.157 9.77813C197.074 9.54375 196.907 9.40313 196.657 9.40313C196.065 9.39375 195.472 9.38437 194.88 9.39375C194.676 9.39375 194.574 9.54375 194.62 9.74063ZM182.944 19.3125C183.102 20.4094 183.648 21.2625 184.611 21.8063C185.528 22.3219 186.528 22.3875 187.546 22.2375C188.722 22.0594 189.759 21.5531 190.676 20.7844C190.713 20.7562 190.75 20.7281 190.806 20.6906C190.852 20.9906 190.889 21.2719 190.944 21.5531C190.991 21.7969 191.139 21.9563 191.361 21.9656C191.787 21.975 192.204 21.975 192.63 21.9656C192.843 21.9563 192.981 21.8156 193 21.6C193.009 21.525 193.009 21.45 193.009 21.3844V13.0594C193.009 12.7219 192.991 12.3844 192.944 12.0469C192.796 11.0344 192.37 10.2 191.472 9.66562C190.954 9.35625 190.38 9.19687 189.787 9.1125C189.509 9.075 189.231 9.04687 188.944 9.00937H188.019C187.944 9.01875 187.87 9.0375 187.787 9.0375C187.028 9.075 186.278 9.16875 185.546 9.36563C185.074 9.4875 184.62 9.66563 184.157 9.825C183.88 9.91875 183.741 10.125 183.75 10.4344C183.759 10.6969 183.741 10.9594 183.75 11.2125C183.759 11.5969 183.917 11.7 184.278 11.5969C184.88 11.4375 185.491 11.2688 186.102 11.1469C187.056 10.9688 188.019 10.8937 188.981 11.0344C189.481 11.1094 189.954 11.2594 190.287 11.6906C190.574 12.0656 190.676 12.5156 190.694 12.975C190.722 13.6219 190.713 14.2781 190.722 14.925C190.722 14.9625 190.713 14.9906 190.704 15.0375C190.667 15.0375 190.63 15.0375 190.602 15.0281C189.787 14.8313 188.963 14.6906 188.12 14.6437C187.241 14.5969 186.37 14.6531 185.537 14.9437C184.537 15.3 183.731 15.9094 183.259 16.8937C182.88 17.6719 182.833 18.4875 182.944 19.3125ZM169.639 10.0219V26.4563C169.639 26.5313 169.639 26.6156 169.648 26.6906C169.667 26.925 169.806 27.075 170.028 27.0844C170.574 27.0937 171.12 27.0937 171.667 27.0844C171.898 27.0844 172.037 26.925 172.046 26.7C172.056 26.625 172.056 26.5406 172.056 26.4656V20.775C172.139 20.8406 172.185 20.8875 172.231 20.925C173.62 22.0969 175.213 22.4813 176.963 22.1344C178.546 21.8156 179.639 20.8312 180.361 19.3969C180.898 18.3094 181.13 17.1375 181.167 15.9281C181.213 14.5875 181.074 13.2656 180.537 12.0187C179.88 10.4812 178.787 9.45938 177.139 9.12188C176.889 9.06563 176.63 9.04687 176.38 9.00937H175.731C175.62 9.02812 175.509 9.0375 175.398 9.05625C174.315 9.1875 173.333 9.6 172.454 10.2469C172.269 10.3781 172.093 10.5281 171.907 10.6688C171.898 10.6219 171.88 10.5937 171.87 10.5562C171.833 10.3406 171.806 10.125 171.769 9.90937C171.713 9.54375 171.537 9.39375 171.176 9.38437H170.278C169.731 9.375 169.639 9.47813 169.639 10.0219ZM206.204 31.7812C205.954 31.7156 205.731 31.7812 205.5 31.875C201.435 33.6 197.213 34.7062 192.833 35.2312C191.491 35.3906 190.139 35.4937 188.787 35.5312C186.324 35.5969 183.861 35.4563 181.417 35.1281C179.769 34.9031 178.13 34.5937 176.509 34.2C173.083 33.3656 169.778 32.1656 166.63 30.5625C165.815 30.15 165.019 29.6906 164.213 29.25C163.861 29.0531 163.639 29.1094 163.454 29.4469V29.6062C163.565 29.7562 163.657 29.925 163.796 30.0563C167.13 33.075 170.889 35.3531 175.093 36.8906C177.12 37.6313 179.204 38.175 181.324 38.5312C182.62 38.7469 183.917 38.8875 185.231 38.9531C185.509 38.9625 185.787 38.9719 186.065 38.9906C186.13 38.9906 186.194 39.0094 186.259 39.0188H187.898C187.963 39.0094 188.028 38.9906 188.093 38.9906C189.472 38.9531 190.852 38.8219 192.222 38.6156C194.204 38.3156 196.148 37.8563 198.046 37.2375C200.787 36.3375 203.389 35.1375 205.769 33.4781C206.028 33.3 206.296 33.1219 206.509 32.8969C206.907 32.4844 206.722 31.9219 206.204 31.7812ZM210.87 29.1844C210.796 28.7906 210.5 28.6406 210.167 28.5281C209.639 28.35 209.093 28.2656 208.537 28.2188C207.519 28.1344 206.5 28.1813 205.5 28.3688C204.389 28.575 203.333 28.9406 202.398 29.5969C202.287 29.6719 202.176 29.7656 202.111 29.8781C202.056 29.9625 202.046 30.0938 202.065 30.1969C202.093 30.3188 202.222 30.3469 202.343 30.3375C202.398 30.3375 202.454 30.3375 202.509 30.3281L204.315 30.1312C205.204 30.0469 206.093 29.9906 206.981 30.0563C207.361 30.0844 207.731 30.1687 208.093 30.2625C208.491 30.3656 208.667 30.675 208.685 31.0781C208.713 31.7062 208.574 32.3062 208.417 32.9062C208.093 34.1156 207.648 35.2875 207.185 36.45C207.157 36.525 207.12 36.6094 207.111 36.6844C207.074 36.9187 207.204 37.0594 207.426 37.0125C207.556 36.9844 207.704 36.9094 207.796 36.8156C208.139 36.4781 208.491 36.1406 208.778 35.7656C209.769 34.4719 210.352 32.9906 210.694 31.3969C210.759 31.1156 210.806 30.825 210.852 30.5437C210.87 30.1031 210.87 29.6437 210.87 29.1844Z" fill="#524FED"/>
<rect x="160.5" y="3" width="53" height="42" rx="5" fill="#524FED"/>
<path d="M199.106 16.6476C196.325 15.0424 192.769 15.9962 191.162 18.777L187.111 25.7948C185.939 27.8211 187.448 28.5292 189.13 29.5381L193.029 31.7883C194.349 32.5495 196.035 32.0973 196.796 30.7792L200.961 23.5672C202.36 21.1438 201.529 18.0466 199.106 16.6474V16.6476Z" fill="#EA4335"/>
<path d="M194.523 19.5469L190.625 17.2969C188.473 16.1026 187.255 16.0233 186.371 17.4277L180.622 27.3843C179.016 30.1635 179.972 33.7176 182.752 35.3197C185.175 36.7187 188.272 35.8884 189.671 33.465L195.53 23.3159C196.295 21.9958 195.843 20.3079 194.523 19.5466V19.5469Z" fill="#FBBC04"/>
<path d="M195.272 14.4306L192.535 12.849C189.506 11.1014 185.634 12.1379 183.886 15.1666L178.673 24.1943C177.903 25.5262 178.36 27.2313 179.692 27.9998L182.759 29.7699C184.273 30.6451 186.208 30.1257 187.083 28.6115L193.038 18.2976C194.272 16.1609 197.003 15.4287 199.14 16.6628L195.272 14.4306Z" fill="#34A853"/>
<path d="M184.628 17.7509L181.668 16.0458C180.348 15.2864 178.662 15.7364 177.9 17.053L174.349 23.189C172.601 26.2091 173.638 30.0726 176.666 31.8158L178.919 33.1133L181.652 34.6877L182.838 35.37C180.733 33.9608 180.064 31.1367 181.351 28.9128L182.271 27.3245L185.638 21.5067C186.397 20.1936 185.946 18.5108 184.627 17.7511L184.628 17.7509Z" fill="#4285F4"/>
</svg>
