<svg width="20" height="21" viewBox="0 0 20 21" fill="none" xmlns="http://www.w3.org/2000/svg">
<path d="M13.751 8.9359C15.2798 10.037 17.1169 10.628 19.001 10.625V6.875C17.6086 6.875 16.2733 6.32188 15.2887 5.33731C14.3041 4.35274 13.751 3.01739 13.751 1.625H10.001V13.625C10.0009 14.0947 9.87472 14.5558 9.63567 14.9602C9.39662 15.3645 9.05345 15.6974 8.64195 15.9239C8.23045 16.1504 7.7657 16.2624 7.29619 16.2481C6.82667 16.2338 6.36959 16.0938 5.97262 15.8427C5.57565 15.5916 5.25335 15.2385 5.03932 14.8204C4.82529 14.4022 4.72738 13.9343 4.75582 13.4654C4.78425 12.9966 4.93797 12.5439 5.20095 12.1547C5.46394 11.7655 5.82654 11.454 6.25095 11.2526L6.251 7.34895C5.05718 7.56287 3.94914 8.11287 3.05693 8.93441C2.16472 9.75595 1.52535 10.8149 1.21385 11.9871C0.902363 13.1592 0.931676 14.3959 1.29835 15.552C1.66503 16.7081 2.35386 17.7356 3.28399 18.5139C4.21413 19.2923 5.34698 19.7892 6.5496 19.9463C7.75221 20.1034 8.97469 19.9142 10.0736 19.401C11.1724 18.8877 12.1021 18.0716 12.7535 17.0486C13.4049 16.0255 13.7509 14.8378 13.751 13.625L13.751 8.9359Z" stroke="white" stroke-width="1.5" stroke-linecap="round" stroke-linejoin="round"/>
</svg>
