<svg width="60" height="76" viewBox="0 0 60 76" fill="none" xmlns="http://www.w3.org/2000/svg">
<path d="M33.643 3.10993C33.1307 2.99608 32.6184 2.99608 32.106 3.053C31.8783 3.053 31.6506 3.10993 31.4798 3.10993C31.1383 2.19912 30.8537 1.23138 30.5121 0.320564C30.3983 -0.0779182 29.7721 -0.134844 29.6582 0.320564C29.4305 1.23138 29.2028 2.1422 28.9751 2.99609C28.5197 2.93917 28.0643 2.82531 27.6089 2.71146C27.2104 2.59761 26.8688 3.16686 27.2104 3.45149C27.6658 3.84998 28.1212 4.24846 28.6335 4.70387C28.5766 4.9885 28.5197 5.27313 28.4628 5.55776C28.3489 6.01317 28.292 6.5255 28.1781 6.98091C28.0643 7.26554 28.0074 7.49324 27.8935 7.77787C27.7227 8.23328 28.3489 8.57483 28.6905 8.23327C29.032 7.89172 29.3736 7.55017 29.7151 7.26554C29.6013 7.6071 29.4874 7.94865 29.4305 8.2902C29.2028 9.14409 29.032 9.99798 28.8613 10.8519C28.8043 11.3073 28.5766 12.1042 29.032 12.4458C29.2597 12.5596 29.5444 12.5027 29.7151 12.332C29.8859 12.1042 29.9428 11.7627 29.9998 11.4781C29.9998 11.4211 29.9998 11.4211 29.9998 11.3642C29.9998 11.3642 29.9998 11.3642 29.9998 11.3073C29.9998 11.2503 29.9998 11.1934 29.9998 11.1934C29.9998 11.4211 30.0567 11.6488 30.1706 11.8765C30.2844 12.1042 30.5121 12.1612 30.7398 12.1612V12.2181C30.7967 12.3889 30.9106 12.5597 31.0814 12.6166C31.4798 12.7874 31.9353 12.5027 31.9353 12.0473C31.9353 11.7627 31.8783 11.4781 31.8214 11.2504C31.7645 11.0227 31.7645 10.738 31.7076 10.5103C31.6506 9.94105 31.5368 9.37179 31.4798 8.80253C31.4229 8.2902 31.3091 7.77788 31.1952 7.26554C31.1952 7.20862 31.1383 7.09475 31.1383 7.03782C31.4229 7.26553 31.7645 7.43632 32.106 7.55017C32.4476 7.66402 32.7891 7.32247 32.6753 6.98091C32.4476 6.41165 32.2199 5.78546 32.0491 5.15927C32.5614 4.76079 33.0738 4.36231 33.643 3.96382C34.0415 3.67919 34.0415 3.16686 33.643 3.10993Z" fill="#F89226"/>
<path d="M40.1324 75.7477H19.7529C20.3222 74.8369 20.8914 73.6414 21.4607 72.1614C24.6486 63.964 27.5518 48.9355 27.5518 48.9355H35.5214C35.5214 56.5067 40.1324 75.7477 40.1324 75.7477Z" fill="#AA621A"/>
<path d="M40.1324 75.7464H19.7529C20.3222 74.8356 20.8914 73.6402 21.4607 72.1601C24.4778 71.9893 28.2349 71.1924 29.9427 68.6876C32.5044 64.8166 33.4152 52.7483 33.6429 48.9912H35.5214C35.5214 56.5054 40.1324 75.7464 40.1324 75.7464Z" fill="#BD711B"/>
<path d="M34.611 33.4515C30.9677 20.6432 24.5351 33.3946 24.5351 33.3946C24.5351 33.3946 10.8729 52.0663 0 57.5882C0 57.5882 5.52182 62.8823 14.7438 59.2959C18.7287 57.7589 21.2903 55.9373 22.8843 54.4003C20.6072 58.1574 18.3302 63.6792 22.9981 66.2409C30.3416 70.2826 34.3833 52.7494 34.3833 52.7494C34.3833 52.7494 34.4972 62.0853 44.8008 64.2485C55.1044 66.4117 44.8008 54.3434 44.8008 54.3434C44.8008 54.3434 53.3397 60.9468 60 51.0417C60 51.0417 38.3112 46.203 34.611 33.4515Z" fill="#0C5149"/>
<path d="M34.3831 21.6118C30.9106 9.48656 24.8196 21.5549 24.8196 21.5549C24.8196 21.5549 11.8404 39.2589 1.59375 44.4961C1.59375 44.4961 6.83094 49.5055 15.5406 46.1469C19.2977 44.6668 21.7456 42.959 23.2826 41.479C21.1194 45.0084 18.9562 50.3025 23.3395 52.6934C30.2845 56.5644 34.1554 39.885 34.1554 39.885C34.1554 39.885 34.2693 48.7086 44.0036 50.7579C53.738 52.8073 44.0036 41.3651 44.0036 41.3651C44.0036 41.3651 52.144 47.627 58.4059 38.2342C58.4628 38.2911 37.8556 33.737 34.3831 21.6118Z" fill="#0F7A70"/>
<path d="M33.4733 14.8366C30.7409 5.27301 25.9591 14.7796 25.9591 14.7796C25.9591 14.7796 15.7124 28.7265 7.62891 32.8821C7.62891 32.8821 11.7845 36.81 18.6725 34.1914C21.6327 33.0529 23.5682 31.6867 24.7636 30.4912C23.0559 33.2806 21.3481 37.4362 24.8206 39.3717C30.2855 42.3888 33.3595 29.2958 33.3595 29.2958C33.3595 29.2958 33.4164 36.2407 41.1583 37.8916C48.9003 39.5425 41.1583 30.4912 41.1583 30.4912C41.1583 30.4912 47.534 35.4438 52.4866 28.0434C52.4866 27.9865 36.2058 24.4001 33.4733 14.8366Z" fill="#10998F"/>
<path d="M41.8407 39.8261C41.8407 41.6477 40.3606 43.1278 38.539 43.1278C36.7174 43.1278 35.2373 41.6477 35.2373 39.8261C35.2373 39.7692 35.2373 39.7123 35.2373 39.6553C35.3512 37.8906 36.7743 36.5244 38.539 36.5244C38.5959 36.5244 38.6529 36.5244 38.7098 36.5244C40.4745 36.5813 41.8407 38.0614 41.8407 39.8261Z" fill="#CC2E50"/>
<path d="M39.5634 38.346C39.5634 39.6553 38.4818 40.68 37.2294 40.68C36.4325 40.68 35.6924 40.2815 35.2939 39.6553C35.4078 37.8906 36.8309 36.5244 38.5956 36.5244C38.6526 36.5244 38.7095 36.5244 38.7664 36.5244C39.2218 36.9798 39.5634 37.606 39.5634 38.346Z" fill="#D8456C"/>
<path d="M27.8368 32.8818C27.8368 34.7034 26.3567 36.1835 24.5351 36.1835C22.7135 36.1835 21.2334 34.7034 21.2334 32.8818C21.2334 32.8249 21.2334 32.7679 21.2334 32.711C21.3473 30.9463 22.7704 29.5801 24.5351 29.5801C24.592 29.5801 24.649 29.5801 24.7059 29.5801C26.4706 29.637 27.8368 31.1171 27.8368 32.8818Z" fill="#CC2E50"/>
<path d="M25.5028 31.4017C25.5028 32.711 24.4213 33.7357 23.1689 33.7357C22.3719 33.7357 21.6319 33.3372 21.2334 32.711C21.3473 30.9463 22.7704 29.5801 24.5351 29.5801C24.592 29.5801 24.649 29.5801 24.7059 29.5801C25.2182 29.9786 25.5028 30.6617 25.5028 31.4017Z" fill="#D8456C"/>
<path d="M19.0126 43.9824C19.0126 45.804 17.5325 47.2841 15.7109 47.2841C13.8893 47.2841 12.4092 45.804 12.4092 43.9824C12.4092 43.9255 12.4092 43.8685 12.4092 43.8116C12.523 42.0469 13.9462 40.6807 15.7109 40.6807C15.7678 40.6807 15.8247 40.6807 15.8817 40.6807C17.6464 40.7945 19.0126 42.2177 19.0126 43.9824Z" fill="#CC2E50"/>
<path d="M16.6786 42.5023C16.6786 43.8116 15.597 44.8363 14.3447 44.8363C13.5477 44.8363 12.8077 44.4378 12.4092 43.8116C12.523 42.0469 13.9462 40.6807 15.7109 40.6807C15.7678 40.6807 15.8247 40.6807 15.8817 40.6807C16.394 41.1361 16.6786 41.7623 16.6786 42.5023Z" fill="#D8456C"/>
<path d="M31.5946 52.1796C31.5946 54.0013 30.1146 55.4813 28.2929 55.4813C26.4713 55.4813 24.9912 54.0013 24.9912 52.1796C24.9912 52.1227 24.9912 52.0658 24.9912 52.0089C25.1051 50.2442 26.5282 48.8779 28.2929 48.8779C28.3498 48.8779 28.4068 48.8779 28.4637 48.8779C30.2284 48.9349 31.5946 50.358 31.5946 52.1796Z" fill="#CC2E50"/>
<path d="M29.3163 50.6439C29.3163 51.9532 28.2347 52.9779 26.9824 52.9779C26.1854 52.9779 25.4454 52.5794 25.0469 51.9532C25.1607 50.1885 26.5839 48.8223 28.3486 48.8223C28.4055 48.8223 28.4624 48.8223 28.5194 48.8223C28.9748 49.2777 29.3163 49.9608 29.3163 50.6439Z" fill="#D8456C"/>
<path d="M39.2219 21.3253C39.1081 21.0976 38.7665 20.9837 38.5388 21.1545C37.8557 21.553 37.2295 21.9515 36.4895 22.293C35.8064 22.6346 35.1233 22.9761 34.3832 23.2607C32.9601 23.83 31.5938 24.2854 30.0568 24.627C27.0967 25.3101 24.0796 25.5378 21.0056 25.3101C20.1517 25.2532 19.2978 25.1393 18.4439 25.0255C17.9885 24.9685 17.59 24.9116 17.1346 24.8547C16.9069 24.7978 16.6792 24.7978 16.5085 24.7408C16.2808 24.6839 16.11 24.7408 15.8823 24.7978C15.8253 24.7978 15.7684 24.9116 15.8253 24.9685C15.9392 25.0824 16.11 25.1962 16.2807 25.3101C16.4515 25.367 16.6792 25.4239 16.85 25.4809C17.1916 25.5947 17.59 25.7086 17.9316 25.8224C18.7286 25.9932 19.4686 26.164 20.3225 26.2778C21.8595 26.4486 23.4534 26.5055 24.9904 26.4486C28.1783 26.3348 31.3092 25.6516 34.2694 24.5131C35.9202 23.8869 37.5711 23.09 39.0511 22.1222C39.3358 21.8376 39.3358 21.496 39.2219 21.3253Z" fill="#F89226"/>
<path d="M41.8397 23.9443C41.8397 25.7659 40.3597 27.246 38.538 27.246C36.7164 27.246 35.2363 25.7659 35.2363 23.9443C35.2363 23.8874 35.2363 23.8304 35.2363 23.7735C35.3502 22.0088 36.7733 20.6426 38.538 20.6426C38.595 20.6426 38.6519 20.6426 38.7088 20.6426C40.4735 20.6995 41.8397 22.1226 41.8397 23.9443Z" fill="#CC2E50"/>
<path d="M39.5614 22.4085C39.5614 23.7178 38.4798 24.7425 37.2275 24.7425C36.4305 24.7425 35.6905 24.344 35.292 23.7178C35.4058 21.9531 36.829 20.5869 38.5937 20.5869C38.6506 20.5869 38.7075 20.5869 38.7645 20.5869C39.2199 21.0423 39.5614 21.6685 39.5614 22.4085Z" fill="#D8456C"/>
<path d="M20.8905 25.1396C20.8905 26.9612 19.4105 28.4413 17.5888 28.4413C15.7672 28.4413 14.2871 26.9612 14.2871 25.1396C14.2871 25.0827 14.2871 25.0257 14.2871 24.9688C14.401 23.2041 15.8241 21.8379 17.5888 21.8379C17.6457 21.8379 17.7027 21.8379 17.7596 21.8379C19.4674 21.8948 20.8905 23.3749 20.8905 25.1396Z" fill="#CC2E50"/>
<path d="M18.5566 23.6029C18.5566 24.9122 17.475 25.9368 16.2226 25.9368C15.4256 25.9368 14.6856 25.5384 14.2871 24.9122C14.401 23.1475 15.8241 21.7812 17.5888 21.7812C17.6457 21.7812 17.7027 21.7812 17.7596 21.7812C18.215 22.2367 18.5566 22.9198 18.5566 23.6029Z" fill="#D8456C"/>
<path d="M29.6576 21.0989C29.5438 20.985 29.4869 20.9281 29.3161 20.9281C29.2022 20.9281 29.1453 20.9281 29.0315 20.9281C28.9745 20.9281 28.9176 20.9281 28.8607 20.9281C28.8607 20.8712 28.9176 20.8712 28.9176 20.8143C28.9745 20.7004 29.0315 20.6435 29.0884 20.5296C29.0884 20.4727 29.1453 20.4158 29.1453 20.3589C29.1453 20.3019 29.1453 20.245 29.1453 20.1881C29.1453 20.1881 29.1453 20.1311 29.0884 20.1881C29.0315 20.1881 28.9745 20.1881 28.9745 20.1881C28.9176 20.1881 28.8607 20.245 28.8607 20.245C28.7468 20.3019 28.6899 20.3588 28.5761 20.4727C28.5191 20.5296 28.5191 20.5296 28.4622 20.5866C28.4053 20.4158 28.3483 20.245 28.2345 20.1311C28.1776 20.0742 28.0068 20.0742 27.9499 20.1881C27.8929 20.3588 27.8929 20.4727 27.8929 20.6435C27.7222 20.5296 27.5514 20.4158 27.3806 20.3589C27.2668 20.3589 27.2098 20.4158 27.2668 20.5296C27.3806 20.7004 27.5514 20.8143 27.6652 20.985C27.6652 20.985 27.6652 20.985 27.7222 21.042C27.5514 21.042 27.3806 21.042 27.2668 21.0989C27.096 21.1558 27.096 21.3835 27.2668 21.4974C27.4375 21.5543 27.5514 21.5543 27.7222 21.6112C27.6652 21.6681 27.6083 21.782 27.5514 21.8389C27.4945 21.8958 27.4945 21.8959 27.4375 21.9528C27.3806 22.0666 27.3806 22.2374 27.5514 22.2943C27.6652 22.3513 27.836 22.3513 27.9499 22.2943C28.0068 22.2374 28.0637 22.1805 28.1206 22.1236C28.1206 22.1805 28.1776 22.2374 28.1776 22.2943C28.2914 22.4651 28.5761 22.4651 28.6899 22.2943C28.7468 22.1805 28.7468 22.0666 28.7468 21.8959C28.8038 21.9528 28.8607 22.0097 28.9176 22.0097C28.9745 22.0666 29.0315 22.0666 29.0884 22.0666C29.1453 22.0666 29.2022 22.1236 29.2592 22.1236C29.3161 22.1236 29.4299 22.0666 29.4299 21.9528C29.4299 21.8959 29.373 21.8958 29.373 21.8389C29.373 21.7251 29.2592 21.6112 29.1453 21.4974C29.373 21.4974 29.6007 21.4974 29.7146 21.2697C29.6576 21.2127 29.6576 21.1558 29.6576 21.0989Z" fill="#FFF5CF"/>
<path d="M13.7758 38.6887C13.662 38.5749 13.605 38.518 13.4343 38.518C13.3204 38.518 13.2635 38.518 13.1496 38.518C13.0927 38.518 13.0358 38.518 12.9788 38.518C12.9788 38.461 13.0358 38.461 13.0358 38.4041C13.0927 38.2902 13.1496 38.2333 13.2065 38.1195C13.2065 38.0625 13.2635 38.0056 13.2635 37.9487C13.2635 37.8918 13.2635 37.8348 13.2635 37.7779C13.2635 37.7779 13.2635 37.721 13.2065 37.7779C13.1496 37.7779 13.0927 37.7779 13.0927 37.7779C13.0358 37.7779 12.9788 37.8348 12.9788 37.8348C12.865 37.8918 12.8081 37.9487 12.6942 38.0625C12.6373 38.1195 12.6373 38.1195 12.5804 38.1764C12.5234 38.0056 12.4665 37.8348 12.3527 37.721C12.2957 37.6641 12.125 37.6641 12.068 37.7779C12.0111 37.9487 12.0111 38.0625 12.0111 38.2333C11.8403 38.1195 11.6695 38.0056 11.4988 37.9487C11.3849 37.9487 11.328 38.0056 11.3849 38.1195C11.4988 38.2902 11.6695 38.4041 11.7834 38.5749C11.7834 38.5749 11.7834 38.5749 11.8403 38.6318C11.6695 38.6318 11.4988 38.6318 11.3849 38.6887C11.2141 38.7456 11.2141 38.9734 11.3849 39.0872C11.5557 39.1441 11.6695 39.1441 11.8403 39.2011C11.7834 39.258 11.7265 39.3718 11.6695 39.4288C11.6126 39.4857 11.6126 39.4857 11.5557 39.5426C11.4988 39.6565 11.4988 39.8272 11.6695 39.8842C11.7834 39.9411 11.9542 39.9411 12.068 39.8842C12.125 39.8272 12.1819 39.7703 12.2388 39.7134C12.2388 39.7703 12.2957 39.8272 12.2957 39.8842C12.4096 40.0549 12.6942 40.0549 12.8081 39.8842C12.865 39.7703 12.865 39.6565 12.865 39.4857C12.9219 39.5426 12.9788 39.5995 13.0358 39.5995C13.0927 39.6565 13.1496 39.6565 13.2065 39.6565C13.2635 39.6565 13.3204 39.7134 13.3773 39.7134C13.4343 39.7134 13.5481 39.6565 13.5481 39.5426C13.5481 39.4857 13.4912 39.4857 13.4912 39.4288C13.4912 39.3149 13.3773 39.2011 13.2635 39.0872C13.4912 39.0872 13.7189 39.0872 13.8327 38.8595C13.7758 38.8026 13.8327 38.6887 13.7758 38.6887Z" fill="#FFF5CF"/>
<path d="M23.6235 32.426C23.5096 32.3122 23.4527 32.2553 23.2819 32.2553C23.1681 32.2553 23.1111 32.2553 22.9973 32.2553C22.9404 32.2553 22.8834 32.2553 22.8265 32.2553C22.8265 32.1983 22.8834 32.1983 22.8834 32.1414C22.9404 32.0275 22.9973 31.9706 23.0542 31.8568C23.0542 31.7998 23.1111 31.7429 23.1111 31.686C23.1111 31.6291 23.1111 31.5721 23.1111 31.5152C23.1111 31.5152 23.1111 31.4583 23.0542 31.5152C22.9973 31.5152 22.9404 31.5152 22.9404 31.5152C22.8834 31.5152 22.8265 31.5721 22.8265 31.5721C22.7127 31.6291 22.6557 31.686 22.5419 31.7998C22.4849 31.8568 22.485 31.8568 22.428 31.9137C22.3711 31.7429 22.3142 31.5721 22.2003 31.4583C22.1434 31.4014 21.9726 31.4014 21.9157 31.5152C21.8588 31.686 21.8588 31.7998 21.8588 31.9706C21.688 31.8568 21.5172 31.7429 21.3464 31.686C21.2326 31.686 21.1756 31.7429 21.2326 31.8568C21.3464 32.0275 21.5172 32.1414 21.6311 32.3122C21.6311 32.3122 21.6311 32.3122 21.688 32.3691C21.5172 32.3691 21.3464 32.3691 21.2326 32.426C21.0618 32.483 21.0618 32.7107 21.2326 32.8245C21.4034 32.8814 21.5172 32.8814 21.688 32.9384C21.6311 32.9953 21.5741 33.1091 21.5172 33.1661C21.4603 33.223 21.4603 33.223 21.4034 33.2799C21.3464 33.3938 21.3464 33.5646 21.5172 33.6215C21.6311 33.6784 21.8018 33.6784 21.9157 33.6215C21.9726 33.5646 22.0295 33.5076 22.0865 33.4507C22.0865 33.5076 22.1434 33.5646 22.1434 33.6215C22.2572 33.7923 22.5419 33.7923 22.6557 33.6215C22.7127 33.5076 22.7127 33.3938 22.7127 33.223C22.7696 33.2799 22.8265 33.3368 22.8834 33.3368C22.9404 33.3938 22.9973 33.3938 23.0542 33.3938C23.1111 33.3938 23.1681 33.4507 23.225 33.4507C23.2819 33.4507 23.3958 33.3938 23.3958 33.2799C23.3958 33.223 23.3388 33.223 23.3388 33.1661C23.3388 33.0522 23.225 32.9384 23.1111 32.8245C23.3388 32.8245 23.5665 32.8245 23.6804 32.5968C23.6235 32.5399 23.6804 32.426 23.6235 32.426Z" fill="#FFF5CF"/>
<path d="M43.2065 54.5139C43.0926 54.4001 43.0357 54.3431 42.8649 54.3431C42.7511 54.3431 42.6941 54.3431 42.5803 54.3431C42.5234 54.3431 42.4664 54.3431 42.4095 54.3431C42.4095 54.2862 42.4664 54.2862 42.4664 54.2293C42.5234 54.1154 42.5803 54.0585 42.6372 53.9447C42.6372 53.8877 42.6941 53.8308 42.6941 53.7739C42.6941 53.717 42.6941 53.66 42.6941 53.6031C42.6941 53.6031 42.6941 53.5462 42.6372 53.6031C42.5803 53.6031 42.5234 53.6031 42.5234 53.6031C42.4664 53.6031 42.4095 53.66 42.4095 53.66C42.2957 53.717 42.2387 53.7739 42.1249 53.8877C42.068 53.9447 42.068 53.9447 42.011 54.0016C41.9541 53.8308 41.8972 53.66 41.7833 53.5462C41.7264 53.4893 41.5556 53.4893 41.4987 53.6031C41.4418 53.7739 41.4418 53.8877 41.4418 54.0585C41.271 53.9447 41.1002 53.8308 40.9294 53.7739C40.8156 53.7739 40.7587 53.8308 40.8156 53.9447C40.9294 54.1154 41.1002 54.2293 41.2141 54.4001C41.2141 54.4001 41.2141 54.4001 41.271 54.457C41.1002 54.457 40.9294 54.457 40.8156 54.5139C40.6448 54.5709 40.6448 54.7985 40.8156 54.9124C40.9864 54.9693 41.1002 54.9693 41.271 55.0263C41.2141 55.0832 41.1571 55.197 41.1002 55.254C41.0433 55.3109 41.0433 55.3109 40.9864 55.3678C40.9294 55.4817 40.9294 55.6524 41.1002 55.7094C41.2141 55.7663 41.3848 55.7663 41.4987 55.7094C41.5556 55.6524 41.6125 55.5955 41.6695 55.5386C41.6695 55.5955 41.7264 55.6524 41.7264 55.7094C41.8402 55.8801 42.1249 55.8801 42.2387 55.7094C42.2957 55.5955 42.2957 55.4817 42.2957 55.3109C42.3526 55.3678 42.4095 55.4247 42.4664 55.4247C42.5234 55.4817 42.5803 55.4817 42.6372 55.4817C42.6941 55.4817 42.7511 55.5386 42.808 55.5386C42.8649 55.5386 42.9788 55.4817 42.9788 55.3678C42.9788 55.3109 42.9218 55.3109 42.9218 55.254C42.9218 55.1401 42.808 55.0263 42.6941 54.9124C42.9218 54.9124 43.1496 54.9124 43.2634 54.6847C43.2065 54.6278 43.2634 54.5709 43.2065 54.5139Z" fill="#FFF5CF"/>
<path d="M36.7748 31.6301C36.661 31.5163 36.6041 31.4594 36.4333 31.4594C36.3194 31.4594 36.2625 31.4594 36.1487 31.4594C36.0917 31.4594 36.0348 31.4594 35.9779 31.4594C35.9779 31.4024 36.0348 31.4024 36.0348 31.3455C36.0917 31.2317 36.1486 31.1747 36.2056 31.0609C36.2056 31.004 36.2625 30.947 36.2625 30.8901C36.2625 30.8332 36.2625 30.7762 36.2625 30.7193C36.2625 30.7193 36.2625 30.6624 36.2056 30.7193C36.1486 30.7193 36.0917 30.7193 36.0917 30.7193C36.0348 30.7193 35.9779 30.7762 35.9779 30.7762C35.864 30.8332 35.8071 30.8901 35.6932 31.004C35.6363 31.0609 35.6363 31.0609 35.5794 31.1178C35.5225 30.947 35.4655 30.7762 35.3517 30.6624C35.2948 30.6055 35.124 30.6055 35.0671 30.7193C35.0101 30.8901 35.0101 31.004 35.0101 31.1747C34.8394 31.0609 34.6686 30.947 34.4978 30.8901C34.3839 30.8901 34.327 30.947 34.3839 31.0609C34.4978 31.2317 34.6686 31.3455 34.7824 31.5163C34.7824 31.5163 34.7824 31.5163 34.8394 31.5732C34.6686 31.5732 34.4978 31.5732 34.3839 31.6301C34.2132 31.6871 34.2132 31.9148 34.3839 32.0286C34.5547 32.0856 34.6686 32.0855 34.8394 32.1425C34.7824 32.1994 34.7255 32.3132 34.6686 32.3702C34.6116 32.4271 34.6116 32.4271 34.5547 32.484C34.4978 32.5979 34.4978 32.7687 34.6686 32.8256C34.7824 32.8825 34.9532 32.8825 35.0671 32.8256C35.124 32.7687 35.1809 32.7117 35.2378 32.6548C35.2378 32.7117 35.2948 32.7687 35.2948 32.8256C35.4086 32.9964 35.6932 32.9964 35.8071 32.8256C35.864 32.7117 35.864 32.5979 35.864 32.4271C35.9209 32.484 35.9779 32.541 36.0348 32.541C36.0917 32.5979 36.1486 32.5979 36.2056 32.5979C36.2625 32.5979 36.3194 32.6548 36.3764 32.6548C36.4333 32.6548 36.5471 32.5979 36.5471 32.484C36.5471 32.4271 36.4902 32.4271 36.4902 32.3702C36.4902 32.2563 36.3764 32.1425 36.2625 32.0286C36.4902 32.0286 36.7179 32.0286 36.8318 31.8009C36.7748 31.744 36.7748 31.6871 36.7748 31.6301Z" fill="#FFF5CF"/>
<path d="M13.434 53.9446C13.3202 53.8307 13.2632 53.7738 13.0925 53.7738C12.9786 53.7738 12.9217 53.7738 12.8078 53.7738C12.7509 53.7738 12.694 53.7738 12.6371 53.7738C12.6371 53.7169 12.694 53.7169 12.694 53.66C12.7509 53.5461 12.8078 53.4892 12.8648 53.3753C12.8648 53.3184 12.9217 53.2615 12.9217 53.2045C12.9217 53.1476 12.9217 53.0907 12.9217 53.0338C12.9217 53.0338 12.9217 52.9768 12.8648 53.0338C12.8078 53.0338 12.7509 53.0338 12.7509 53.0338C12.694 53.0338 12.6371 53.0907 12.6371 53.0907C12.5232 53.1476 12.4663 53.2046 12.3524 53.3184C12.2955 53.3753 12.2955 53.3753 12.2386 53.4322C12.1816 53.2615 12.1247 53.0907 12.0109 52.9768C11.9539 52.9199 11.7832 52.9199 11.7262 53.0338C11.6693 53.2046 11.6693 53.3184 11.6693 53.4892C11.4985 53.3753 11.3278 53.2615 11.157 53.2045C11.0431 53.2045 10.9862 53.2615 11.0431 53.3753C11.157 53.5461 11.3278 53.66 11.4416 53.8307C11.4416 53.8307 11.4416 53.8307 11.4985 53.8877C11.3278 53.8877 11.157 53.8877 11.0431 53.9446C10.8723 54.0015 10.8723 54.2292 11.0431 54.3431C11.2139 54.4 11.3278 54.4 11.4985 54.4569C11.4416 54.5138 11.3847 54.6277 11.3278 54.6846C11.2708 54.7415 11.2708 54.7416 11.2139 54.7985C11.157 54.9123 11.157 55.0831 11.3278 55.14C11.4416 55.197 11.6124 55.197 11.7262 55.14C11.7832 55.0831 11.8401 55.0262 11.897 54.9693C11.897 55.0262 11.9539 55.0831 11.9539 55.14C12.0678 55.3108 12.3524 55.3108 12.4663 55.14C12.5232 55.0262 12.5232 54.9123 12.5232 54.7416C12.5801 54.7985 12.637 54.8554 12.694 54.8554C12.7509 54.9123 12.8078 54.9123 12.8648 54.9123C12.9217 54.9123 12.9786 54.9693 13.0355 54.9693C13.0925 54.9693 13.2063 54.9123 13.2063 54.7985C13.2063 54.7416 13.1494 54.7415 13.1494 54.6846C13.1494 54.5708 13.0355 54.4569 12.9217 54.3431C13.1494 54.3431 13.3771 54.3431 13.4909 54.1154C13.434 54.0584 13.434 54.0015 13.434 53.9446Z" fill="#FFF5CF"/>
<path d="M54.1371 38.9729C54.0233 38.8591 53.9664 38.8021 53.7956 38.8021C53.6817 38.8021 53.6248 38.8021 53.511 38.8021C53.454 38.8021 53.3971 38.8021 53.3402 38.8021C53.3402 38.7452 53.3971 38.7452 53.3971 38.6883C53.454 38.5744 53.511 38.5175 53.5679 38.4036C53.5679 38.3467 53.6248 38.2898 53.6248 38.2329C53.6248 38.1759 53.6248 38.119 53.6248 38.0621C53.6248 38.0621 53.6248 38.0052 53.5679 38.0621C53.511 38.0621 53.454 38.0621 53.454 38.0621C53.3971 38.0621 53.3402 38.119 53.3402 38.119C53.2263 38.1759 53.1694 38.2329 53.0555 38.3467C52.9986 38.4036 52.9986 38.4036 52.9417 38.4606C52.8848 38.2898 52.8278 38.119 52.714 38.0052C52.6571 37.9482 52.4863 37.9482 52.4294 38.0621C52.3724 38.2329 52.3724 38.3467 52.3724 38.5175C52.2017 38.4036 52.0309 38.2898 51.8601 38.2329C51.7462 38.2329 51.6893 38.2898 51.7462 38.4036C51.8601 38.5744 52.0309 38.6883 52.1447 38.8591C52.1447 38.8591 52.1447 38.859 52.2017 38.916C52.0309 38.916 51.8601 38.916 51.7462 38.9729C51.5755 39.0298 51.5755 39.2575 51.7462 39.3714C51.917 39.4283 52.0309 39.4283 52.2017 39.4852C52.1447 39.5422 52.0878 39.656 52.0309 39.713C51.974 39.7699 51.974 39.7699 51.917 39.8268C51.8601 39.9406 51.8601 40.1114 52.0309 40.1684C52.1447 40.2253 52.3155 40.2253 52.4294 40.1684C52.4863 40.1114 52.5432 40.0545 52.6001 39.9976C52.6001 40.0545 52.6571 40.1114 52.6571 40.1684C52.7709 40.3391 53.0555 40.3391 53.1694 40.1684C53.2263 40.0545 53.2263 39.9406 53.2263 39.7699C53.2833 39.8268 53.3402 39.8837 53.3971 39.8837C53.454 39.9406 53.511 39.9407 53.5679 39.9407C53.6248 39.9407 53.6817 39.9976 53.7387 39.9976C53.7956 39.9976 53.9094 39.9406 53.9094 39.8268C53.9094 39.7699 53.8525 39.7699 53.8525 39.713C53.8525 39.5991 53.7387 39.4852 53.6248 39.3714C53.8525 39.3714 54.0802 39.3714 54.1941 39.1437C54.1371 39.0298 54.1371 38.9729 54.1371 38.9729Z" fill="#FFF5CF"/>
<path d="M42.7518 14.4954C42.4103 14.4385 42.0118 14.4385 41.6702 14.3246C41.2718 14.2108 40.8733 14.04 40.5317 13.8692C40.1902 13.6415 39.8486 13.4138 39.5071 13.0722C40.0194 12.9584 40.4179 12.6738 40.8164 12.2753C41.3287 11.706 41.4995 10.909 41.1579 10.2259C40.8733 9.54282 40.1902 9.08742 39.3932 9.20127C38.5962 9.31512 38.027 9.94131 37.7993 10.6814C37.6285 11.1937 37.6285 11.7629 37.7424 12.2753C36.8885 12.1614 36.0346 11.8768 35.4084 11.6491C34.8961 11.4214 34.3268 11.1937 33.8714 10.7952C34.0991 10.7383 34.3268 10.7383 34.4976 10.6814C36.2053 10.2829 37.9131 9.54282 39.0517 8.17659C39.6209 7.55041 40.1332 6.69653 39.9625 5.84264C39.8486 5.04568 39.2224 4.41948 38.4255 4.19177C36.7177 3.62251 34.953 4.81796 33.8145 5.95648C33.1313 6.63959 32.5621 7.37964 31.9359 8.11968C31.5943 8.46124 31.3097 8.80278 30.9112 9.08741C30.7974 9.20126 30.6835 9.25819 30.5127 9.37204C30.342 9.37204 30.2281 9.37204 30.0573 9.37204C29.9435 9.31512 29.8296 9.2582 29.7727 9.20127C29.4881 9.03049 29.2035 8.80278 28.9188 8.51815C28.4065 8.00582 27.8942 7.49349 27.4387 6.92423C26.471 5.78571 25.3894 4.70412 23.9663 4.07793C23.1124 3.73638 22.1446 3.67945 21.5184 4.41949C20.8923 5.15953 20.8923 6.12727 21.2907 6.92423C21.9739 8.46123 23.5109 9.65668 24.9909 10.3967C25.8448 10.8521 26.7556 11.1937 27.7234 11.3645C27.8372 11.3645 27.9511 11.4214 28.0649 11.4214C27.0403 12.0476 25.8448 12.503 24.7063 12.5599C24.6494 12.5599 24.5355 12.5599 24.4786 12.5599C24.5355 12.2753 24.5924 11.9337 24.5355 11.5352C24.4786 10.7383 24.0232 9.88438 23.1693 9.77053C22.3154 9.59975 21.6323 10.3967 21.3477 11.0798C21.0061 11.8768 21.1769 12.9015 21.9738 13.3569C22.0308 13.4138 22.1446 13.4707 22.2016 13.4707C21.9169 13.6415 21.5754 13.8123 21.2907 13.9831C20.0953 14.6092 18.5014 15.1785 17.1351 15.0077C17.0213 15.0077 16.9074 15.1216 16.9644 15.2354C17.5905 17.0571 20.2091 16.0324 21.3477 15.5201C22.2016 15.1216 23.1124 14.5523 23.7955 13.8123C23.9663 13.8123 24.194 13.8123 24.3647 13.7554C26.1294 13.5846 27.6095 12.7876 28.6342 11.3645C29.2604 11.4214 29.9435 11.3075 30.342 10.966C30.7405 10.966 31.1389 10.9091 31.4236 10.9091C31.879 10.9091 32.3344 10.8521 32.7898 10.8521C33.1313 11.1937 33.5298 11.4783 33.6437 11.5922C34.3268 12.1045 35.0668 12.3891 35.8638 12.6738C36.5469 12.9015 37.3439 13.0722 38.1408 13.1292C38.5962 13.9261 39.3363 14.6092 40.1902 15.0077C40.9302 15.3493 42.1826 15.4631 42.7518 14.7231C42.9226 14.7231 42.8657 14.5523 42.7518 14.4954ZM23.3401 12.503C23.1693 12.446 23.0554 12.3891 22.8847 12.3322C22.6 12.1614 22.6 11.9337 22.657 11.6491C22.7139 11.4783 22.8277 10.9091 23.0554 10.9091C23.397 10.9091 23.5108 11.5352 23.5108 11.7629C23.5678 11.9906 23.4539 12.2753 23.3401 12.503ZM28.5203 10.0552C27.8942 9.88438 27.211 9.77053 26.6418 9.54283C25.3894 9.0305 24.194 8.1766 23.3401 7.095C23.0554 6.75345 22.4293 5.95649 22.8277 5.44415C23.1124 5.04567 24.0232 5.67186 24.3647 5.84264C25.3894 6.46883 26.1294 7.49349 26.9264 8.34738C27.3818 8.85971 27.8942 9.37205 28.4065 9.82746C28.4065 9.94131 28.4634 9.94131 28.5203 10.0552C28.5203 9.99824 28.5203 10.0552 28.5203 10.0552ZM33.2452 8.74585C34.2129 7.66426 35.1238 6.41189 36.4331 5.72878C37.0023 5.44415 37.7424 5.27337 38.3116 5.44415C39.1086 5.72878 38.8239 6.46883 38.3685 6.98116C37.4008 8.11968 35.9776 8.68894 34.5545 8.97357C33.9283 9.08742 33.3591 9.14435 32.7329 9.20127C32.9606 9.08742 33.1313 8.91663 33.2452 8.74585ZM39.3932 10.1121C39.7917 9.94131 40.1332 10.169 40.304 10.5675C40.4748 10.909 40.361 11.2506 40.1332 11.5922C39.8486 11.9906 39.3932 12.2183 38.9378 12.2753C38.9378 12.2183 38.8809 12.2183 38.8809 12.1614C38.5962 11.4783 38.6532 10.4536 39.3932 10.1121Z" fill="#CC2E50"/>
</svg>
